<?xml version="1.0" standalone="no"?>
<!DOCTYPE svg PUBLIC "-//W3C//DTD SVG 20010904//EN"
 "http://www.w3.org/TR/2001/REC-SVG-20010904/DTD/svg10.dtd">
<svg version="1.0" xmlns="http://www.w3.org/2000/svg"
 width="1083.000000pt" height="1083.000000pt" viewBox="0 0 1083.000000 1083.000000"
 preserveAspectRatio="xMidYMid meet">

<g transform="translate(0.000000,1083.000000) scale(0.100000,-0.100000)"
fill="#000000" stroke="none">
<path d="M5295 10723 c-114 -25 -270 -146 -337 -263 -39 -66 -66 -156 -73
-240 -6 -66 -4 -85 21 -160 33 -99 105 -212 172 -270 26 -22 84 -59 130 -82
l82 -41 0 -995 0 -994 -30 -28 c-57 -54 -98 -60 -379 -60 -141 0 -266 3 -278
6 -17 5 -27 19 -37 53 -35 118 -80 175 -199 252 -71 46 -133 60 -206 48 -206
-33 -371 -252 -332 -440 14 -67 76 -166 135 -213 72 -60 129 -80 231 -80 96
-1 150 17 238 77 44 30 77 34 342 41 207 6 249 0 260 -41 18 -75 72 -160 152
-241 61 -62 84 -94 89 -119 4 -22 9 -30 14 -23 11 19 23 -169 18 -271 -4 -54
-11 -94 -19 -103 -31 -35 -38 -44 -32 -50 4 -3 -3 -6 -15 -6 -11 0 -24 -4 -27
-10 -3 -5 -15 -10 -26 -10 -11 0 -17 -4 -14 -10 3 -5 -3 -10 -14 -10 -12 0
-21 -4 -21 -10 0 -5 -7 -10 -16 -10 -16 0 -52 -30 -37 -30 4 -1 -4 -8 -19 -16
-16 -8 -28 -19 -28 -24 0 -5 -16 -25 -35 -45 -20 -19 -32 -35 -28 -35 4 0 3
-4 -3 -8 -19 -14 -53 -90 -63 -146 -6 -31 -14 -64 -19 -74 -11 -21 -16 -135
-7 -163 4 -10 11 -17 16 -14 5 4 9 -9 9 -27 0 -36 15 -67 26 -55 4 4 7 41 6
83 -2 54 2 79 12 90 20 20 26 18 26 -10 0 -14 5 -28 10 -31 6 -3 10 -13 10
-21 0 -24 27 -45 63 -48 19 -2 39 -6 46 -10 6 -4 11 -1 11 7 0 8 -9 17 -20 20
-11 3 -20 10 -20 16 0 6 9 15 20 21 22 12 27 59 9 77 -8 8 -8 17 0 30 5 11 11
41 13 66 l3 47 38 0 c20 0 37 5 37 10 0 6 9 10 20 10 23 0 26 22 6 42 -16 17
-26 99 -11 96 5 0 18 2 28 7 11 4 28 2 44 -6 22 -12 27 -11 38 4 7 9 18 17 25
17 10 0 10 -3 0 -15 -7 -8 -9 -15 -4 -15 5 0 18 14 29 30 15 24 25 29 43 25
15 -4 22 -1 22 9 0 8 11 28 25 44 30 36 32 52 5 52 -11 0 -20 4 -20 8 0 5 9
19 20 32 13 15 20 18 20 9 0 -11 2 -11 11 1 8 11 12 12 16 3 2 -7 14 -13 24
-13 11 0 18 -4 15 -8 -3 -5 1 -9 9 -9 20 0 19 12 -2 36 -9 11 -18 30 -20 43
-5 43 -3 283 4 358 6 77 17 97 78 140 40 29 103 116 120 165 9 28 25 64 35 80
22 35 186 196 280 274 36 30 74 64 86 75 11 12 63 59 114 106 51 47 115 105
141 130 38 36 118 109 203 185 6 6 29 25 51 44 22 18 83 75 135 125 52 50 128
120 169 156 84 73 154 138 337 310 38 36 92 84 119 107 28 23 82 72 120 108
120 114 190 163 253 175 31 7 67 16 80 21 13 5 30 9 38 9 9 0 55 18 103 40 66
31 99 55 142 100 31 32 64 75 73 94 9 19 21 38 26 41 6 3 10 14 10 23 0 9 8
31 17 47 15 25 18 55 18 171 l0 140 -38 76 c-46 94 -107 163 -195 220 -90 59
-171 88 -252 89 -146 3 -231 -22 -339 -96 -137 -94 -214 -227 -231 -398 -4
-46 -14 -85 -22 -94 -8 -8 -62 -32 -119 -53 -57 -21 -207 -77 -333 -125 l-229
-87 -137 7 c-134 7 -137 7 -188 -19 -153 -78 -214 -233 -154 -391 26 -68 64
-111 137 -158 45 -29 56 -32 130 -32 71 0 89 4 145 32 89 43 158 135 174 228
10 59 25 92 50 109 12 8 94 42 182 76 87 33 206 80 264 102 58 22 125 43 150
45 41 3 49 0 92 -39 66 -61 68 -77 16 -134 -24 -26 -97 -94 -163 -152 -66 -58
-139 -124 -161 -146 -23 -23 -82 -76 -130 -118 -49 -42 -99 -87 -110 -100 -39
-43 -206 -196 -294 -268 -68 -56 -139 -120 -206 -185 -69 -68 -428 -402 -484
-451 -24 -21 -56 -51 -71 -65 -39 -39 -91 -54 -126 -36 -37 20 -83 66 -94 95
-13 34 -12 1961 1 1977 6 7 39 26 73 43 66 32 165 104 196 143 34 43 89 152
105 208 23 78 21 194 -5 277 -60 196 -198 327 -397 378 -55 15 -190 20 -237 9z
m61 -4230 c-6 -17 -5 -17 8 0 18 23 36 22 36 -2 0 -30 -11 -51 -27 -51 -8 0
-11 -5 -8 -12 4 -7 -2 -2 -13 11 -19 24 -19 71 0 71 6 0 7 -8 4 -17z m-71 -63
c8 -14 -5 -80 -17 -80 -5 0 -7 4 -4 9 3 5 -5 16 -19 25 -31 20 -32 43 -2 49
12 2 25 5 29 6 4 0 10 -3 13 -9z m-125 -66 c0 -8 -4 -14 -10 -14 -5 0 -10 9
-10 21 0 11 5 17 10 14 6 -3 10 -13 10 -21z m-36 -29 c-4 -8 -1 -22 6 -29 9
-12 7 -17 -9 -26 -12 -6 -21 -19 -21 -30 0 -10 -9 -25 -20 -33 -18 -12 -19
-18 -10 -43 10 -25 8 -31 -13 -49 -14 -11 -28 -30 -32 -43 -4 -13 -17 -28 -30
-34 -13 -6 -22 -16 -21 -22 2 -6 1 -8 -1 -3 -3 4 -12 7 -20 7 -37 0 11 158 52
174 8 3 15 16 15 28 0 15 13 31 36 47 20 14 40 35 45 48 5 13 13 23 18 23 6 0
8 -7 5 -15z m236 5 c0 -5 -4 -10 -9 -10 -6 0 -13 5 -16 10 -3 6 1 10 9 10 9 0
16 -4 16 -10z m-100 -25 c0 -8 -7 -15 -15 -15 -16 0 -20 12 -8 23 11 12 23 8
23 -8z m-86 -43 c-7 -4 -13 -16 -15 -27 -3 -11 -12 -21 -22 -23 -12 -3 -17 3
-17 22 0 18 6 26 23 29 37 7 43 7 31 -1z m-54 -72 c0 -5 -4 -10 -10 -10 -5 0
-10 5 -10 10 0 6 5 10 10 10 6 0 10 -4 10 -10z m-213 -227 c-3 -10 -5 -4 -5
12 0 17 2 24 5 18 2 -7 2 -21 0 -30z"/>
<path d="M3286 10215 c-140 -39 -267 -137 -326 -255 -50 -100 -67 -244 -40
-350 12 -43 96 -174 142 -217 50 -48 145 -101 219 -123 127 -38 235 -23 390
56 41 20 83 34 105 34 52 0 493 -219 533 -265 20 -24 32 -52 41 -101 7 -38 21
-89 32 -114 24 -58 99 -134 163 -168 132 -70 333 1 403 141 31 63 39 158 18
229 -21 74 -95 156 -174 195 -53 26 -66 28 -180 28 l-122 0 -207 105 c-229
116 -362 192 -380 217 -8 10 -13 47 -13 89 0 99 -16 166 -57 245 -104 201
-340 311 -547 254z"/>
<path d="M9090 8848 c-85 -36 -122 -60 -176 -113 -62 -62 -100 -111 -106 -135
-2 -8 -8 -20 -14 -27 -6 -6 -9 -24 -6 -39 3 -19 1 -25 -7 -20 -7 5 -13 -4 -18
-24 -4 -22 -18 -40 -46 -58 -40 -26 -107 -40 -107 -21 0 5 -31 7 -77 4 -43 -4
-242 -8 -443 -11 -201 -3 -368 -9 -372 -12 -13 -13 -13 -141 0 -154 9 -9 12
-8 12 9 0 11 6 25 13 30 16 13 160 16 220 5 26 -5 50 -6 52 -2 3 5 0 10 -7 12
-21 7 17 38 46 38 14 0 26 4 26 9 0 11 -17 17 -80 27 -40 6 -42 8 -20 15 35
10 670 11 670 1 0 -14 83 -10 98 5 18 18 52 17 52 -2 0 -8 -7 -15 -15 -15 -8
0 -15 -4 -15 -10 0 -5 -7 -10 -15 -10 -22 0 -29 -24 -15 -51 11 -19 10 -25 -6
-36 -17 -12 -17 -13 4 -13 48 0 18 -19 -48 -31 -38 -7 -70 -16 -70 -20 0 -4
21 -10 48 -14 68 -8 96 -18 100 -36 3 -15 -54 -75 -232 -241 -129 -121 -128
-120 -173 -160 -23 -20 -39 -39 -35 -42 3 -3 0 -6 -7 -6 -16 0 -79 -59 -86
-81 -4 -11 -13 -19 -21 -19 -8 0 -12 -4 -9 -10 3 -5 -1 -10 -10 -10 -9 0 -13
-4 -10 -10 3 -5 -3 -10 -14 -10 -19 0 -26 -10 -22 -32 0 -5 -6 -8 -14 -8 -8 0
-15 -4 -15 -10 0 -5 -8 -10 -17 -10 -15 0 -16 -2 -3 -10 12 -8 10 -10 -9 -10
-13 0 -22 -3 -18 -6 8 -8 -18 -34 -34 -34 -7 0 -10 -3 -6 -6 8 -8 -31 -45 -66
-63 -20 -11 -24 -17 -15 -23 9 -5 7 -8 -7 -8 -17 0 -17 -2 -5 -10 12 -7 8 -10
-14 -10 -16 0 -26 -3 -23 -7 4 -3 -3 -11 -14 -17 -12 -6 -21 -15 -20 -21 1 -5
-7 -12 -17 -15 -21 -5 -144 -117 -327 -297 -87 -85 -110 -102 -139 -104 -24
-2 -40 2 -48 13 -7 9 -24 18 -38 20 -17 2 -24 8 -22 20 2 11 -6 20 -22 24 -13
3 -27 12 -30 20 -3 8 -12 14 -20 14 -8 0 -19 7 -24 16 -8 14 -27 21 -61 23
-10 1 -11 4 -2 15 9 11 8 15 -5 20 -31 12 -45 7 -42 -16 2 -15 -3 -24 -14 -26
-13 -2 -18 3 -18 18 0 12 -7 28 -15 36 -17 18 -20 50 -5 59 6 3 10 15 10 27 0
16 -5 19 -22 15 -12 -4 -28 -1 -35 5 -10 8 -13 6 -13 -6 0 -13 -6 -15 -27 -10
-37 9 -36 8 -29 49 4 21 13 35 21 35 8 0 15 8 15 19 0 13 7 19 25 19 16 0 25
-6 25 -16 0 -12 3 -13 11 -5 21 21 1 49 -34 49 l-32 -1 0 60 c0 53 -2 60 -20
60 -13 0 -21 -8 -23 -22 -3 -17 -10 -23 -28 -23 -15 0 -24 -6 -24 -16 0 -11 6
-13 19 -9 14 4 23 0 31 -15 11 -20 10 -21 -12 -15 l-23 7 24 -21 c19 -16 22
-24 13 -33 -9 -9 -12 -8 -12 5 0 26 -15 21 -46 -15 -22 -28 -24 -34 -10 -36 9
-2 16 -8 16 -13 0 -5 9 -9 20 -9 11 0 20 -4 20 -10 0 -5 -9 -10 -19 -10 -11 0
-23 5 -26 10 -3 6 -13 10 -21 10 -8 0 -14 -4 -14 -10 0 -5 6 -10 13 -10 8 0
28 -7 45 -15 36 -19 33 -45 -5 -45 -25 0 -46 -15 -56 -40 -4 -10 -6 -8 -6 7
-1 28 -17 38 -28 18 -8 -13 -17 -13 -66 -3 -31 7 -57 16 -57 20 0 13 -26 9
-38 -4 -6 -7 -8 -25 -5 -40 5 -24 9 -27 47 -25 22 0 43 4 46 9 7 10 80 -2 80
-13 0 -5 -4 -9 -10 -9 -5 0 -10 -3 -10 -8 0 -4 19 -6 41 -4 29 3 40 1 35 -7
-4 -6 -23 -11 -42 -11 -20 0 -42 -7 -50 -15 -14 -13 -9 -15 40 -15 31 0 56 -4
56 -8 0 -5 11 -15 25 -22 13 -7 23 -16 20 -19 -2 -4 9 -12 24 -19 15 -7 37
-21 49 -32 12 -11 24 -20 26 -20 3 0 19 -13 34 -30 16 -16 33 -30 37 -30 4 0
15 -8 24 -18 9 -10 32 -25 51 -35 19 -9 31 -17 26 -17 -10 0 11 -19 64 -60 18
-14 44 -35 59 -47 14 -13 32 -23 39 -23 7 0 11 -4 8 -8 -2 -4 8 -13 23 -20 15
-7 37 -21 49 -32 12 -11 26 -20 32 -20 5 0 10 -4 10 -10 0 -5 5 -10 11 -10 14
0 99 -87 99 -103 0 -11 -182 -190 -294 -289 -27 -23 -84 -77 -126 -118 -76
-74 -147 -141 -247 -232 -29 -27 -49 -48 -45 -48 4 0 -6 -9 -23 -19 -16 -11
-65 -53 -108 -95 -87 -83 -144 -116 -202 -116 -38 0 -86 -12 -135 -34 -39 -17
-128 -112 -154 -162 -14 -27 -23 -66 -25 -98 -2 -66 31 -172 65 -204 13 -13
24 -27 24 -32 0 -6 6 -10 14 -10 8 0 17 -8 20 -17 9 -26 98 -81 149 -93 45
-10 153 2 188 20 23 13 59 13 59 0 0 -5 7 -10 15 -10 8 0 15 -4 15 -8 0 -4 12
-15 28 -25 15 -9 43 -30 62 -48 19 -17 52 -45 73 -63 21 -17 59 -50 85 -73 26
-24 51 -43 55 -43 5 0 36 -28 68 -62 66 -69 84 -115 74 -182 -6 -38 -35 -69
-415 -448 -350 -350 -413 -408 -438 -408 -34 0 -91 27 -99 46 -3 8 -11 14 -19
14 -7 0 -19 8 -26 18 -7 10 -33 32 -58 50 -25 17 -72 51 -105 75 -74 53 -121
77 -151 77 -21 0 -22 4 -22 83 -1 152 -33 237 -121 319 -32 29 -68 60 -81 68
-44 27 -87 80 -94 111 -3 17 -6 242 -6 500 0 296 -4 469 -10 469 -5 0 -7 7 -3
15 3 9 -1 23 -10 33 -19 21 -31 83 -22 111 4 15 15 21 35 21 22 0 31 7 42 30
12 28 53 50 96 50 28 0 10 29 -20 33 l-33 5 35 -2 c30 -1 35 -5 38 -28 3 -23
-1 -28 -17 -28 -14 0 -21 -6 -21 -20 0 -12 7 -20 18 -20 26 0 46 16 37 31 -6
8 -4 11 7 7 8 -4 20 2 26 13 7 10 17 18 23 16 6 -1 13 6 14 15 3 18 -17 30
-39 22 -8 -3 -17 -1 -21 5 -4 7 4 11 19 11 33 0 34 18 2 30 -13 5 -27 14 -31
19 -8 14 57 15 71 1 6 -6 18 -8 27 -4 14 5 14 8 2 20 -7 8 -21 14 -29 14 -27
0 -17 14 24 34 25 12 40 26 40 37 0 20 18 35 28 24 4 -4 1 -10 -5 -12 -7 -3
-13 -12 -12 -21 0 -11 2 -12 6 -4 8 20 26 13 20 -9 -3 -12 -1 -19 6 -16 6 2
15 19 20 38 5 19 13 39 19 46 5 7 7 17 3 24 -4 6 -8 47 -10 91 -1 53 -6 82
-15 88 -7 4 -9 13 -6 19 11 16 -19 41 -48 41 -14 0 -26 5 -26 10 0 6 -7 10
-16 10 -11 0 -14 6 -9 20 5 16 2 20 -14 20 -12 0 -21 6 -21 14 0 8 -14 17 -30
21 -35 8 -31 25 6 25 28 0 29 3 8 35 -16 25 -44 34 -44 15 0 -5 -4 -10 -10
-10 -5 0 -10 11 -10 25 0 24 -2 25 -22 13 -23 -12 -29 -13 -82 -16 l-29 -2 6
-61 c5 -60 5 -61 -19 -56 -13 2 -24 1 -24 -4 0 -17 33 -39 61 -39 16 0 29 -5
29 -11 0 -5 5 -7 11 -3 7 4 0 14 -18 26 -27 20 -28 20 -3 14 14 -3 30 -6 37
-6 7 0 10 -18 10 -50 -2 -52 -5 -58 -25 -38 -9 9 -12 8 -12 -5 0 -9 -7 -17
-15 -17 -8 0 -15 -4 -15 -9 0 -5 7 -11 15 -15 8 -3 15 -10 15 -16 0 -14 -85
-7 -104 9 -11 9 -16 9 -21 0 -4 -6 -1 -15 6 -20 7 -4 10 -11 6 -16 -4 -4 -17
-2 -27 5 -18 11 -20 9 -20 -14 0 -22 -2 -25 -15 -14 -8 7 -12 16 -9 22 8 12
-16 39 -28 32 -5 -3 -22 -7 -37 -8 -16 -1 -37 -10 -47 -20 -10 -10 -20 -14
-21 -9 -5 13 -74 3 -91 -13 -20 -21 8 -44 52 -44 19 0 38 -4 41 -10 3 -5 -1
-10 -9 -10 -12 0 -16 -11 -16 -45 0 -39 3 -47 25 -55 34 -13 31 -26 -10 -46
-40 -18 -65 -13 -72 16 -6 24 -19 26 -27 4 -10 -25 -7 -34 10 -34 14 0 15 -7
11 -37 -4 -20 -10 -39 -15 -42 -9 -6 -32 -45 -32 -55 0 -3 10 -14 22 -26 23
-21 68 -28 68 -10 0 21 32 9 70 -27 22 -20 40 -45 40 -57 0 -15 -3 -17 -11 -9
-6 6 -18 9 -25 6 -8 -3 -14 0 -14 7 0 26 -25 38 -66 30 -21 -4 -31 -8 -21 -9
9 0 17 -5 17 -11 0 -5 9 -10 21 -10 11 0 17 -4 14 -10 -3 -5 -1 -10 4 -10 6 0
10 -6 8 -12 -1 -7 5 -12 13 -10 8 2 12 0 8 -4 -4 -4 -3 -13 3 -20 8 -10 11
-168 11 -532 0 -453 -2 -523 -16 -557 -30 -70 -63 -81 -116 -35 -19 16 -38 29
-42 30 -4 0 -18 10 -31 23 -43 41 -82 72 -109 86 -15 8 -25 18 -22 23 3 4 -1
8 -8 8 -7 0 -32 18 -56 40 -23 22 -47 40 -52 40 -6 0 -10 5 -10 10 0 6 -5 10
-11 10 -5 0 -24 13 -42 30 -18 16 -37 30 -42 30 -6 0 -17 9 -24 19 -8 11 -20
17 -28 14 -7 -3 -13 2 -13 11 0 9 -6 16 -14 16 -8 0 -16 6 -19 13 -2 7 -22 21
-43 32 -43 22 -65 40 -59 47 3 3 -12 14 -33 25 -20 11 -36 26 -34 32 1 7 -2
10 -7 7 -5 -4 -13 0 -18 8 -5 8 -24 22 -43 30 -19 8 -31 15 -27 16 15 0 -62
70 -78 70 -9 0 -14 4 -11 9 7 10 -16 21 -44 21 -10 0 -22 5 -25 10 -4 6 -3 9
2 8 20 -7 16 18 -4 27 -13 5 -23 13 -23 17 0 5 -6 8 -14 8 -8 0 -17 6 -19 13
-4 9 -8 9 -15 -2 -11 -15 -27 2 -18 18 3 5 -10 22 -30 37 -20 16 -50 41 -66
57 -17 15 -33 27 -37 27 -5 0 -23 15 -103 86 -15 13 -32 24 -38 24 -5 0 -10 4
-10 8 0 4 -12 15 -27 24 -16 9 -46 34 -68 55 -46 43 -95 81 -133 103 -14 8
-52 41 -85 73 -32 31 -63 57 -68 57 -5 0 -9 4 -9 10 0 5 -21 24 -47 41 -27 18
-55 41 -64 51 -9 10 -19 18 -23 18 -4 0 -24 13 -44 28 -20 16 -62 47 -92 70
-74 56 -180 157 -181 174 0 7 0 59 1 114 1 56 -4 120 -11 142 -15 51 -6 88 23
96 13 3 77 58 142 122 115 112 120 116 155 110 20 -3 72 -8 116 -12 104 -8
164 15 232 90 59 65 73 100 73 178 0 80 -30 147 -92 207 -63 62 -113 80 -223
81 -113 1 -139 12 -270 117 -56 44 -149 116 -208 161 -58 44 -112 86 -119 92
-7 6 -38 29 -68 52 -30 22 -77 59 -105 82 -27 24 -93 73 -145 111 -150 108
-355 272 -372 297 -13 20 -13 28 -1 63 18 49 12 185 -11 261 -36 118 -146 243
-266 302 -67 32 -85 37 -172 40 -79 4 -110 0 -169 -18 -133 -40 -229 -121
-292 -247 -46 -91 -72 -217 -58 -282 31 -143 100 -252 212 -330 167 -117 310
-130 516 -45 40 17 72 24 87 20 13 -3 60 -33 103 -66 43 -34 98 -75 123 -92
25 -18 97 -72 160 -122 159 -124 569 -440 662 -509 109 -82 138 -111 138 -139
0 -17 -36 -63 -120 -154 -188 -201 -195 -207 -238 -201 -20 2 -70 17 -111 32
-62 22 -87 26 -146 23 -133 -6 -268 -94 -365 -239 -23 -32 -44 -59 -48 -59
-22 0 -188 145 -447 390 -61 58 -135 127 -164 154 -58 54 -58 54 -31 156 25
97 -8 198 -95 289 -143 150 -327 154 -480 10 -76 -72 -99 -124 -100 -224 0
-100 22 -153 100 -234 74 -78 151 -113 260 -119 44 -2 93 -11 109 -20 28 -14
181 -151 396 -356 53 -50 106 -99 118 -109 18 -14 21 -21 12 -32 -14 -16 -64
-21 -465 -41 -306 -16 -435 -18 -466 -8 -9 2 -37 35 -62 73 -49 73 -104 124
-177 162 -36 19 -61 24 -125 24 -105 0 -171 -32 -258 -125 -103 -109 -121
-200 -64 -324 15 -32 41 -76 59 -98 42 -54 136 -114 199 -127 87 -19 210 21
310 100 19 15 46 30 60 33 13 3 161 12 329 21 168 8 384 20 480 25 96 6 245
11 330 13 163 2 174 0 225 -47 44 -41 158 -113 225 -142 56 -24 79 -28 160
-28 89 -1 100 1 177 36 91 41 108 40 163 -5 14 -12 41 -33 60 -47 53 -40 401
-315 423 -335 7 -6 28 -22 47 -35 41 -29 59 -43 109 -87 20 -18 48 -38 64 -45
15 -7 27 -16 27 -20 0 -4 11 -13 24 -20 21 -12 56 -39 134 -105 27 -23 69 -32
57 -13 -3 6 -3 10 2 10 14 0 29 -14 36 -32 7 -19 47 -25 47 -8 0 6 -4 10 -9
10 -5 0 -13 9 -16 20 -3 11 -14 20 -23 20 -16 1 -15 2 1 11 12 7 17 22 17 52
-1 34 -3 39 -11 24 -6 -9 -15 -15 -20 -12 -5 4 -7 11 -4 16 4 5 1 9 -4 9 -6 0
-11 9 -11 20 0 17 7 20 43 20 43 -1 77 -18 77 -39 0 -8 8 -10 23 -5 12 3 19 3
15 -1 -11 -11 10 -45 27 -45 8 0 15 -4 15 -10 0 -5 7 -6 17 -3 10 4 14 2 10
-4 -8 -13 56 -65 75 -61 11 3 13 -9 9 -42 0 -5 -6 -10 -12 -10 -29 0 -53 -60
-29 -75 6 -3 10 1 10 10 0 20 24 45 42 45 10 0 10 -2 1 -8 -16 -10 -4 -27 24
-34 16 -4 20 -2 16 8 -3 9 2 14 16 14 12 0 21 -4 21 -10 0 -5 7 -10 15 -10 9
0 18 -12 22 -30 7 -36 13 -41 52 -42 22 -1 31 -7 35 -25 5 -16 14 -23 30 -23
15 0 26 -7 29 -20 3 -11 1 -20 -5 -20 -6 0 -8 -7 -4 -15 4 -11 -2 -15 -24 -15
-23 0 -31 5 -36 25 -3 14 -12 25 -19 25 -8 0 -17 9 -20 20 -3 11 -13 20 -21
20 -8 0 -14 7 -14 15 0 8 -6 15 -13 15 -18 0 -48 -38 -37 -45 22 -13 10 -34
-17 -31 -20 2 -29 10 -31 25 -3 20 -20 26 -62 23 -9 -1 -20 9 -25 21 -7 15
-18 21 -34 19 -16 -1 -24 4 -28 18 -5 17 -43 30 -43 15 0 -18 57 -65 78 -65
14 0 22 -3 19 -7 -11 -11 27 -32 58 -33 18 0 25 -3 18 -8 -15 -9 -4 -27 17
-27 8 0 14 -5 13 -12 -2 -7 7 -18 20 -24 12 -7 29 -20 38 -31 9 -10 19 -18 23
-18 4 0 16 -9 28 -20 12 -11 27 -20 34 -20 7 0 16 -9 19 -21 4 -12 12 -18 21
-15 8 3 14 -1 14 -8 0 -7 11 -18 25 -24 14 -6 25 -16 25 -20 0 -14 91 -82 101
-76 5 3 9 -2 9 -11 0 -8 8 -19 18 -22 9 -4 23 -15 30 -25 7 -10 17 -18 23 -18
5 0 17 -8 27 -17 10 -10 35 -31 56 -48 21 -16 45 -36 52 -42 7 -7 15 -13 17
-13 3 0 28 -22 56 -49 28 -27 70 -63 93 -81 68 -52 88 -82 92 -139 3 -28 0
-51 -5 -51 -5 0 -9 -24 -8 -52 0 -39 3 -48 9 -33 6 14 9 2 9 -43 1 -78 -6 -89
-121 -189 -49 -43 -103 -89 -118 -103 -55 -49 -73 -62 -104 -75 -37 -15 -136
-25 -136 -14 0 4 -39 6 -87 4 -91 -4 -109 2 -156 46 -11 10 -32 23 -48 29 -16
7 -29 16 -29 21 0 5 -4 9 -10 9 -9 0 -33 17 -64 45 -6 6 -33 26 -61 45 -27 18
-57 41 -65 50 -8 9 -43 35 -77 59 -35 23 -63 46 -63 51 0 6 -7 10 -16 10 -8 0
-12 5 -9 10 3 5 -3 10 -14 10 -12 0 -21 4 -21 8 0 5 -12 15 -28 23 -15 8 -34
22 -43 31 -9 10 -21 18 -28 18 -6 0 -11 5 -11 10 0 6 -7 10 -15 10 -8 0 -15 5
-15 10 0 6 -7 10 -16 10 -8 0 -12 5 -9 10 3 6 1 10 -4 10 -10 0 -36 19 -66 48
-8 6 -18 12 -24 12 -6 0 -11 5 -11 10 0 6 -6 10 -14 10 -14 0 -32 36 -28 53 1
4 -5 7 -14 7 -10 0 -14 -6 -11 -15 4 -8 2 -17 -3 -20 -14 -8 -13 28 1 42 6 6
9 23 6 39 -4 29 -4 28 -6 -3 -1 -35 -31 -49 -31 -15 0 26 -11 34 -27 21 -13
-12 -18 -2 -14 30 2 7 -3 10 -9 6 -6 -4 -17 0 -23 8 -7 8 -23 17 -36 20 -21 5
-23 3 -19 -22 3 -24 1 -27 -18 -23 -17 3 -24 -4 -37 -36 -13 -34 -20 -39 -38
-35 -14 4 -25 0 -31 -11 -5 -9 -16 -16 -23 -16 -8 0 -15 -4 -15 -10 0 -5 -9
-10 -20 -10 -15 0 -20 7 -20 24 0 20 6 25 33 29 17 2 -1 5 -40 5 l-73 2 0 -40
c0 -25 5 -40 12 -40 8 0 6 -6 -4 -17 -13 -13 -20 -14 -31 -5 -8 7 -17 9 -20 5
-4 -3 -13 0 -22 7 -13 10 -15 9 -15 -8 0 -18 -5 -20 -40 -16 -31 4 -40 1 -40
-11 0 -8 4 -15 8 -15 5 0 17 -6 27 -14 17 -12 18 -16 5 -32 -9 -11 -10 -15 -3
-10 8 4 13 1 13 -8 0 -10 9 -16 25 -16 14 0 25 -4 25 -10 0 -5 5 -10 10 -10 6
0 10 7 10 15 0 9 9 15 25 15 16 0 25 -6 25 -15 0 -8 7 -15 15 -15 8 0 15 -4
15 -10 0 -5 5 -10 11 -10 5 0 7 4 4 10 -3 5 1 10 10 10 9 0 13 -4 10 -10 -3
-5 3 -10 14 -10 10 0 21 6 24 13 3 9 9 9 25 0 12 -7 40 -15 64 -18 42 -6 42
-6 18 9 -14 8 -19 15 -12 16 6 0 12 5 12 11 0 8 -17 10 -50 7 -47 -5 -50 -4
-50 18 0 17 -6 24 -20 24 -11 0 -20 5 -20 10 0 6 9 10 19 10 11 0 21 5 23 12
3 9 6 9 12 0 4 -7 2 -12 -3 -12 -6 0 -11 -4 -11 -10 0 -5 19 -10 43 -10 29 0
38 3 28 9 -12 8 -13 12 -1 26 7 9 19 14 25 11 7 -2 17 0 23 6 8 8 16 6 27 -6
9 -9 22 -16 28 -16 7 0 18 -9 25 -20 7 -12 8 -20 2 -20 -15 0 -5 -41 13 -55 9
-7 17 -20 17 -29 0 -18 -43 -85 -78 -122 -12 -12 -18 -25 -15 -28 4 -3 1 -6
-5 -6 -7 0 -131 -119 -277 -265 -146 -146 -262 -265 -259 -265 4 0 -8 -13 -27
-29 -19 -16 -65 -59 -103 -95 -38 -36 -73 -66 -78 -66 -5 0 -7 -4 -4 -9 3 -4
-6 -13 -20 -20 -14 -6 -22 -16 -19 -21 3 -6 -1 -10 -10 -10 -8 0 -23 -13 -33
-29 -9 -15 -20 -29 -24 -30 -5 0 -8 -3 -8 -6 0 -8 -74 -75 -83 -75 -4 0 -5 -5
-2 -10 3 -6 -1 -10 -9 -10 -8 0 -21 -8 -28 -18 -7 -10 -24 -26 -38 -35 -16
-11 -19 -17 -10 -18 8 0 -6 -7 -32 -14 -58 -16 -94 -13 -138 8 -37 19 -197 24
-228 8 -9 -5 -36 -15 -60 -22 -23 -7 -42 -16 -42 -21 0 -4 -10 -8 -23 -8 -13
0 -33 -9 -45 -20 -12 -11 -26 -20 -32 -20 -6 0 -8 -4 -5 -10 3 -5 1 -10 -5
-10 -19 0 -95 -82 -120 -130 -14 -25 -30 -52 -36 -60 -21 -25 -46 -175 -41
-237 10 -109 30 -179 49 -167 8 5 12 -9 9 -34 -2 -16 34 -69 71 -104 19 -18
28 -22 28 -12 0 8 5 14 10 14 6 0 10 -10 10 -22 0 -19 2 -20 10 -8 8 13 10 12
10 -3 0 -10 5 -15 10 -12 6 3 10 1 10 -4 0 -6 -8 -11 -17 -11 -27 0 30 -45 95
-76 99 -47 357 -49 394 -4 10 12 22 19 27 16 17 -11 59 12 99 54 22 22 45 40
51 40 6 0 11 6 11 13 0 6 12 23 25 36 14 13 26 31 27 40 1 9 2 25 3 36 1 11 7
19 13 17 7 -1 12 7 12 18 0 11 5 20 10 20 6 0 10 10 10 21 0 12 8 27 17 34 22
16 26 177 6 250 -8 27 -16 58 -18 67 -2 9 -9 27 -15 39 -14 26 -8 91 11 113 8
9 42 44 76 78 34 34 59 66 57 70 -3 4 6 13 21 20 18 8 24 17 19 30 -3 10 -1
18 5 18 18 0 12 18 -6 23 -17 4 -17 5 0 6 9 0 17 6 17 11 0 17 18 11 23 -7 4
-15 6 -15 12 4 4 13 10 23 14 23 4 0 22 13 41 30 28 25 31 32 20 45 -10 13 -9
15 9 15 16 0 21 6 21 26 0 14 4 22 10 19 5 -3 15 3 22 15 7 11 20 20 29 20 23
0 74 46 60 54 -17 11 -13 23 10 29 15 4 20 11 16 21 -5 12 1 16 23 16 17 0 29
3 29 8 -3 20 2 32 14 32 8 0 38 14 68 31 30 17 46 28 37 25 -10 -3 -18 -1 -18
4 0 6 5 10 10 10 6 0 10 13 10 29 0 25 3 28 25 23 15 -2 25 0 25 7 0 6 7 11
15 11 22 0 66 30 59 41 -3 5 6 14 21 21 19 8 24 16 19 31 -4 13 -2 17 5 13 6
-4 11 0 11 8 0 9 5 16 10 16 6 0 10 -4 10 -10 0 -5 4 -10 10 -10 5 0 7 6 4 14
-3 8 3 17 14 20 11 4 23 17 26 30 3 12 21 31 41 42 19 10 35 22 35 27 0 4 11
12 25 17 14 5 25 17 25 25 0 9 4 14 9 11 5 -3 37 21 70 54 57 55 65 60 106 60
25 0 45 5 45 10 0 6 7 10 15 10 8 0 15 -7 15 -15 0 -10 -10 -15 -32 -15 l-33
0 27 -14 c15 -8 37 -24 49 -35 13 -12 26 -21 31 -21 4 0 31 -18 60 -40 29 -22
56 -40 61 -40 16 0 6 22 -13 27 -34 9 -13 20 37 19 45 -1 48 -3 51 -29 3 -25
1 -27 -33 -27 -32 0 -35 -2 -21 -15 8 -8 21 -15 28 -15 7 0 19 -9 26 -20 7
-11 19 -20 27 -20 8 0 15 -4 15 -9 0 -6 24 -26 53 -45 56 -37 139 -114 163
-151 16 -24 23 -59 26 -136 3 -58 -5 -68 -248 -316 -193 -196 -390 -399 -440
-454 -18 -19 -54 -55 -80 -81 -27 -25 -137 -135 -244 -243 -144 -146 -208
-204 -245 -221 -27 -13 -55 -24 -61 -24 -20 0 -95 -72 -114 -111 -31 -59 -27
-134 9 -191 54 -85 126 -113 229 -89 58 14 103 56 125 116 9 22 26 68 38 103
22 58 39 79 299 342 244 247 280 280 308 280 17 0 37 -6 44 -13 7 -7 24 -20
37 -30 22 -14 68 -55 171 -147 16 -14 61 -54 102 -90 137 -121 259 -245 295
-298 19 -29 54 -67 76 -84 37 -26 48 -29 95 -26 114 10 178 134 118 231 -13
21 -72 77 -132 124 -60 48 -116 95 -125 105 -9 10 -21 18 -27 18 -5 0 -38 27
-73 60 -35 33 -69 60 -76 60 -6 0 -15 9 -18 20 -3 11 -12 20 -18 20 -7 0 -19
9 -27 20 -8 11 -19 20 -25 20 -6 0 -17 9 -25 20 -8 11 -19 20 -25 20 -6 0 -17
9 -25 20 -8 11 -19 20 -25 20 -17 0 -102 87 -123 127 -13 24 -1 44 78 123 30
31 71 74 91 95 20 22 81 84 137 138 99 95 102 97 149 97 61 0 176 19 183 29 3
5 14 11 26 15 32 10 90 73 115 125 12 25 26 75 31 111 6 36 12 74 14 85 3 17
88 109 147 160 211 181 228 193 241 160 3 -8 12 -15 20 -15 20 0 22 -38 16
-325 -3 -137 -6 -587 -8 -1000 -2 -689 -5 -840 -18 -902 -3 -15 -28 -36 -73
-62 -101 -59 -225 -184 -261 -264 -79 -175 -79 -301 2 -460 51 -103 154 -207
250 -256 280 -141 654 29 739 337 38 134 14 318 -54 424 -49 76 -161 178 -240
217 -58 29 -68 38 -77 70 -6 22 -10 444 -10 1113 -1 1154 -4 1103 50 1130 14
7 38 21 53 32 35 23 100 25 121 3 9 -9 25 -19 36 -22 11 -3 20 -10 20 -14 0
-5 26 -28 57 -52 32 -24 67 -52 78 -62 11 -10 85 -69 165 -131 302 -235 416
-323 499 -387 47 -36 123 -94 169 -130 46 -35 98 -75 117 -89 18 -14 86 -65
150 -115 65 -49 143 -109 174 -132 73 -55 125 -95 246 -194 55 -45 159 -126
230 -179 72 -53 185 -142 251 -196 358 -291 405 -322 539 -351 71 -16 80 -16
148 1 247 59 428 293 402 519 -22 197 -184 386 -379 442 -72 21 -196 16 -271
-10 -108 -38 -231 -148 -280 -250 -46 -97 -70 -101 -155 -28 -81 70 -420 333
-650 505 -41 31 -110 84 -152 117 -43 33 -78 57 -78 54 0 -4 -7 3 -16 15 -8
12 -22 22 -30 22 -8 0 -17 7 -20 15 -3 8 -14 17 -24 20 -10 3 -36 22 -57 41
-39 36 -56 50 -128 104 -22 16 -47 36 -55 43 -8 8 -54 44 -101 80 -80 62 -99
82 -99 108 0 13 679 694 705 707 23 11 92 -8 135 -38 43 -30 90 -40 182 -40
75 0 105 5 180 31 l91 32 266 -12 c146 -6 399 -16 561 -22 355 -13 766 -36
798 -45 12 -3 24 -16 26 -28 22 -112 32 -150 60 -205 43 -88 136 -173 251
-231 88 -44 92 -45 185 -44 83 1 105 5 174 33 142 58 214 123 282 257 37 74
39 81 39 173 0 274 -169 471 -440 513 -131 20 -269 -29 -387 -137 -66 -61 -84
-65 -228 -54 -52 4 -212 9 -356 12 -349 6 -360 12 -217 125 34 27 119 103 190
169 207 195 239 220 307 243 124 41 208 137 222 251 5 48 3 65 -21 118 -41 91
-116 150 -227 180 -68 17 -158 -21 -235 -101 -66 -68 -76 -102 -68 -232 l7
-111 -79 -76 c-95 -93 -436 -404 -515 -470 -34 -28 -73 -51 -93 -55 -55 -10
-317 0 -341 14 -19 10 -22 22 -26 89 -7 135 -63 226 -195 316 -69 47 -144 71
-218 71 -58 1 -84 -6 -173 -46 -79 -35 -124 -26 -192 38 -72 68 -117 106 -170
147 -30 23 -60 47 -66 52 -126 115 -129 119 -144 244 -5 47 -14 89 -20 95 -5
5 -10 25 -10 44 0 30 11 46 86 120 53 52 83 90 80 99 -3 8 -1 11 5 8 15 -10
44 13 157 123 65 63 98 102 90 105 -7 3 -5 6 7 6 19 1 75 54 75 71 0 4 13 10
29 13 19 4 64 40 129 104 55 54 126 121 158 149 33 29 77 68 99 88 48 43 82
50 110 23 27 -26 56 -47 63 -47 4 0 13 -9 20 -20 7 -11 19 -20 28 -20 8 0 13
-4 10 -8 -3 -5 7 -15 22 -23 15 -8 36 -23 48 -34 11 -11 35 -31 54 -45 81 -61
120 -119 124 -186 4 -49 60 -184 77 -184 5 0 9 -6 9 -13 0 -19 89 -94 142
-121 117 -59 288 -52 391 16 48 32 76 61 167 169 24 28 31 30 130 39 58 5 188
9 290 10 102 0 236 5 299 11 63 6 123 8 135 5 13 -3 33 -28 50 -62 43 -82 109
-145 197 -187 108 -51 174 -63 247 -42 127 37 238 136 282 253 27 71 27 174
-1 247 -24 65 -108 161 -172 198 -161 93 -307 70 -461 -73 -42 -38 -86 -70
-102 -74 -107 -21 -826 -36 -861 -17 -48 25 -36 74 35 146 21 22 70 76 107
120 85 99 64 77 290 304 l190 191 60 0 c76 0 124 12 212 53 38 17 112 93 119
123 3 13 10 24 14 24 18 0 32 133 21 192 -10 54 -50 135 -75 150 -6 3 -24 18
-41 32 -16 14 -38 26 -47 26 -10 0 -18 5 -18 10 0 6 -11 10 -25 10 -14 0 -25
5 -25 10 0 6 -35 10 -85 10 -92 0 -127 -14 -196 -75 -86 -77 -114 -150 -106
-285 5 -95 -3 -131 -37 -166 -19 -19 -173 -182 -336 -354 -272 -287 -242 -260
-293 -260 -25 0 -58 5 -74 11 -42 16 -162 13 -218 -5 -53 -19 -105 -46 -105
-57 0 -4 -19 -14 -42 -24 -50 -20 -93 -14 -129 18 -15 12 -41 33 -59 47 -18
14 -38 30 -44 35 -32 28 -96 75 -103 75 -4 0 -21 13 -38 28 -16 15 -57 47 -90
69 -33 23 -69 49 -80 60 -11 10 -38 27 -60 37 -45 22 -125 99 -125 122 0 8 10
28 21 43 12 16 18 34 15 40 -6 10 13 16 37 12 4 0 7 8 7 19 0 12 7 20 16 20
21 0 61 43 56 60 -6 18 20 31 38 17 8 -6 12 -7 8 -3 -4 5 6 22 22 38 32 30 37
44 18 50 -7 3 -12 21 -11 42 1 39 12 60 20 39 4 -10 13 -9 41 2 19 9 38 12 41
8 13 -17 35 -13 73 14 22 15 44 38 49 51 5 14 12 22 15 19 3 -3 17 4 30 16 18
16 21 23 12 30 -9 6 -8 7 3 4 18 -6 81 57 70 69 -3 4 2 4 13 0 14 -5 17 -2 12
9 -3 10 1 15 13 15 16 0 19 7 17 39 -2 28 1 38 11 34 7 -3 13 -9 13 -14 0 -5
7 -9 16 -9 8 0 12 5 9 10 -3 6 1 10 9 10 17 0 66 45 66 60 0 6 4 10 9 10 18 0
43 32 31 40 -7 5 -5 11 6 21 12 9 15 10 10 2 -4 -9 -1 -13 9 -13 13 0 16 6 11
24 -5 20 0 29 24 46 16 12 34 19 38 16 5 -3 15 6 22 19 7 14 20 25 27 25 8 0
12 4 9 9 -3 5 -15 7 -26 4 -13 -3 -20 0 -20 8 1 20 48 71 60 64 6 -3 14 5 20
19 5 14 16 26 25 26 17 0 20 -11 5 -26 -14 -14 -21 -54 -9 -54 5 0 9 7 9 15 0
8 6 15 13 15 7 0 23 11 35 25 12 14 26 25 32 25 5 0 10 7 10 15 0 8 8 15 18
15 9 0 23 4 31 9 12 8 13 12 2 25 -12 14 -11 16 10 14 15 -2 24 2 24 12 0 8 8
15 18 15 10 0 24 7 30 15 21 27 104 89 111 83 3 -4 6 -1 6 5 0 7 5 12 11 12 5
0 7 -4 4 -10 -4 -6 10 -10 34 -10 22 0 43 -4 46 -10 3 -5 21 -10 40 -10 18 0
35 -4 37 -9 3 -9 57 -14 120 -12 19 1 26 5 22 15 -4 11 4 13 39 9 29 -4 54 0
73 10 l29 16 -32 7 c-18 3 -33 10 -33 15 0 12 57 11 65 -1 13 -21 21 -9 17 25
-2 19 0 35 6 35 15 0 22 -26 9 -39 -8 -8 -5 -11 11 -11 12 0 22 5 22 11 0 10
20 34 30 37 27 5 60 24 60 33 0 6 9 18 20 27 15 13 21 30 22 67 1 28 3 43 5
33 6 -27 33 -31 34 -5 1 12 1 26 0 30 -1 4 5 20 13 35 8 15 16 61 19 102 3 61
-1 90 -22 158 -14 45 -31 82 -38 82 -7 0 -10 6 -7 13 7 18 -56 96 -78 96 -9 1
-19 7 -21 14 -3 7 -6 5 -6 -5 -1 -11 6 -18 17 -18 12 0 18 -9 19 -30 2 -24 -2
-30 -17 -30 -11 0 -20 5 -20 10 0 6 -7 10 -15 10 -8 0 -19 9 -25 20 -11 21
-40 28 -40 10 0 -5 -7 -10 -16 -10 -18 0 -44 23 -44 40 0 18 -27 40 -49 40
-12 0 -21 -4 -21 -8 0 -5 -16 -13 -35 -19 -20 -6 -35 -7 -35 -2 0 16 -120 11
-137 -7 -9 -8 -25 -14 -37 -13 -36 2 -39 0 -22 -26 9 -14 12 -25 7 -25 -5 0
-11 7 -15 15 -6 17 -15 19 -36 5 -13 -9 -13 -12 3 -21 9 -5 17 -16 17 -22 0
-14 -54 -37 -87 -37 -23 0 -33 -18 -33 -57 0 -22 2 -24 15 -13 9 7 18 10 22 6
3 -3 1 -6 -5 -6 -16 0 -15 -27 1 -33 8 -4 8 -6 -2 -6 -8 -1 -23 -8 -33 -18
-10 -9 -29 -17 -43 -19 -19 -2 -26 4 -35 32 -14 40 -6 69 15 60 8 -3 16 0 17
7 0 7 2 17 3 22 2 6 3 18 4 28 1 10 9 17 21 17 13 0 19 6 18 18 -1 9 0 27 0
39 2 20 5 21 28 12 27 -10 39 -6 39 12 0 6 14 18 30 27 17 9 33 21 36 26 4 4
8 3 11 -4 3 -9 13 -11 31 -6 16 4 24 11 21 20 -3 9 9 17 40 26 25 7 44 17 43
24 -1 6 4 10 11 9 6 -2 12 1 12 6 0 5 18 7 40 4 24 -4 40 -2 40 5 0 13 -158
14 -190 0z m427 -245 c-3 -10 -5 -4 -5 12 0 17 2 24 5 18 2 -7 2 -21 0 -30z
m-438 -99 c2 -2 -5 -4 -17 -4 -12 0 -22 -4 -22 -9 0 -5 -9 -7 -20 -4 -20 5
-25 15 -14 26 6 6 64 -2 73 -9z m-1299 -146 c0 -5 15 -9 33 -8 17 1 67 2 110
1 71 -1 77 -3 77 -21 0 -20 -5 -21 -125 -19 -98 1 -128 5 -137 17 -10 12 -10
16 0 19 6 3 12 11 12 19 0 8 6 11 15 8 8 -4 15 -11 15 -16z m53 15 c-7 -2 -19
-2 -25 0 -7 3 -2 5 12 5 14 0 19 -2 13 -5z m220 -30 c-7 -2 -19 -2 -25 0 -7 3
-2 5 12 5 14 0 19 -2 13 -5z m747 -337 c0 -13 3 -33 7 -43 7 -17 6 -17 -11 0
-10 9 -21 15 -26 12 -4 -3 -7 6 -6 19 0 13 4 22 9 19 4 -2 7 1 7 6 0 6 5 11
10 11 6 0 10 -11 10 -24z m281 10 c-9 -11 -9 -15 1 -19 10 -4 10 -7 -1 -15
-17 -12 -41 6 -34 26 4 8 0 10 -13 5 -12 -4 -15 -3 -10 5 4 7 21 12 38 12 25
0 28 -3 19 -14z m39 -32 c0 -8 -5 -12 -10 -9 -6 4 -8 11 -5 16 9 14 15 11 15
-7z m-410 -4 c0 -5 -5 -10 -11 -10 -5 0 -7 5 -4 10 3 6 8 10 11 10 2 0 4 -4 4
-10z m-20 -40 c0 -5 -7 -10 -15 -10 -8 0 -15 5 -15 10 0 6 7 10 15 10 8 0 15
-4 15 -10z m-55 -68 c-8 -9 -25 20 -18 31 3 5 10 2 15 -7 6 -10 7 -20 3 -24z
m97 -54 c-9 -9 -12 -7 -12 12 0 19 3 21 12 12 9 -9 9 -15 0 -24z m-177 -18
c-3 -5 -14 -10 -23 -10 -15 0 -15 2 -2 10 20 13 33 13 25 0z m92 -22 c-3 -8
-6 -5 -6 6 -1 11 2 17 5 13 3 -3 4 -12 1 -19z m-253 -73 c3 -8 1 -15 -4 -15
-6 0 -10 7 -10 15 0 8 2 15 4 15 2 0 6 -7 10 -15z m-121 -140 c-7 -21 -13 -19
-13 6 0 11 4 18 10 14 5 -3 7 -12 3 -20z m-73 -79 c0 -9 -30 -14 -35 -6 -4 6
3 10 14 10 12 0 21 -2 21 -4z m110 -12 c0 -2 -7 -4 -15 -4 -8 0 -15 4 -15 10
0 5 7 7 15 4 8 -4 15 -8 15 -10z m-145 -25 c9 -27 3 -32 -20 -15 -10 7 -15 18
-11 24 11 18 24 14 31 -9z m175 11 c0 -5 -2 -10 -4 -10 -3 0 -8 5 -11 10 -3 6
-1 10 4 10 6 0 11 -4 11 -10z m-218 -36 c-5 -24 -8 -27 -20 -20 -14 8 -2 48
12 43 6 -2 9 -13 8 -23z m93 -24 c3 -5 -1 -10 -10 -10 -9 0 -13 5 -10 10 3 6
8 10 10 10 2 0 7 -4 10 -10z m-25 -54 c0 -11 -19 -15 -25 -6 -3 5 1 10 9 10 9
0 16 -2 16 -4z m-260 -105 c0 -4 -10 -8 -22 -8 -16 -2 -19 0 -9 6 8 6 10 14 5
22 -6 12 -5 12 9 0 9 -7 17 -16 17 -20z m157 -17 c-3 -3 -12 -4 -19 -1 -8 3
-5 6 6 6 11 1 17 -2 13 -5z m-217 -64 c0 -5 -5 -10 -11 -10 -5 0 -7 5 -4 10 3
6 8 10 11 10 2 0 4 -4 4 -10z m-116 -80 c-6 -6 -10 -2 -11 12 -2 16 1 18 10 9
7 -7 8 -14 1 -21z m-837 -79 c15 15 42 -27 35 -54 -5 -20 -6 -20 -18 8 -7 18
-19 30 -30 30 -11 0 -20 8 -22 20 -3 19 -2 19 11 3 10 -12 17 -14 24 -7z m213
-26 c7 -8 9 -15 6 -15 -4 0 -14 7 -22 15 -9 8 -11 15 -6 15 5 0 15 -7 22 -15z
m75 -35 c-3 -5 0 -7 9 -4 10 4 15 -2 18 -18 2 -15 11 -24 26 -26 12 -2 22 -6
22 -10 0 -4 3 -17 6 -29 6 -22 4 -23 -52 -22 -48 0 -55 2 -38 11 19 9 20 14
11 44 -6 19 -17 34 -25 34 -12 0 -12 3 -2 15 14 17 35 21 25 5z m-5 -75 c0
-19 -19 -19 -44 0 -19 14 -18 15 12 15 22 0 32 -5 32 -15z m435 -25 c3 -6 -4
-10 -17 -10 -18 0 -20 2 -8 10 19 12 18 12 25 0z m-489 -10 c8 0 14 -4 14 -10
0 -14 -37 -7 -53 10 -10 10 -9 12 6 6 10 -3 25 -6 33 -6z m201 -26 c-6 -32 20
-45 39 -19 13 17 14 17 14 2 0 -9 -6 -17 -12 -17 -8 0 -5 -7 6 -15 19 -14 19
-15 -7 -15 -19 0 -27 -5 -27 -17 0 -15 -1 -15 -13 2 -8 10 -19 15 -25 11 -7
-4 -12 -3 -12 3 0 5 5 11 11 13 6 2 11 20 12 41 0 20 5 37 10 37 5 0 7 -12 4
-26z m300 -220 c-3 -3 -12 -4 -19 -1 -8 3 -5 6 6 6 11 1 17 -2 13 -5z m-204
-409 c-3 -9 -8 -14 -10 -11 -3 3 -2 9 2 15 9 16 15 13 8 -4z m-1683 -38 c0 -7
-9 -18 -20 -25 -18 -11 -20 -10 -20 13 0 18 5 25 20 25 11 0 20 -6 20 -13z
m-430 -227 c0 -5 -4 -10 -10 -10 -5 0 -10 5 -10 10 0 6 5 10 10 10 6 0 10 -4
10 -10z m50 -25 c10 -13 9 -15 -8 -15 -15 0 -20 5 -16 15 4 8 7 15 9 15 1 0 8
-7 15 -15z m360 -30 c0 -8 -4 -15 -10 -15 -5 0 -10 7 -10 15 0 8 5 15 10 15 6
0 10 -7 10 -15z m1339 -14 c-15 -5 -22 6 -14 19 6 9 10 9 16 -1 5 -8 4 -15 -2
-18z m-1719 4 c0 -8 -7 -15 -15 -15 -8 0 -15 7 -15 15 0 8 7 15 15 15 8 0 15
-7 15 -15z m-50 -30 c0 -8 -7 -15 -15 -15 -8 0 -15 7 -15 15 0 8 7 15 15 15 8
0 15 -7 15 -15z m1730 -9 c0 -3 -4 -8 -10 -11 -5 -3 -10 -1 -10 4 0 6 5 11 10
11 6 0 10 -2 10 -4z m-1680 -56 c0 -21 -15 -27 -25 -10 -7 12 2 30 16 30 5 0
9 -9 9 -20z m1595 -29 c-3 -6 -11 -11 -16 -11 -5 0 -4 6 3 14 14 16 24 13 13
-3z m-1355 -11 c0 -5 -2 -10 -4 -10 -3 0 -8 5 -11 10 -3 6 -1 10 4 10 6 0 11
-4 11 -10z m87 -76 c-3 -3 -12 -4 -19 -1 -8 3 -5 6 6 6 11 1 17 -2 13 -5z
m-439 -41 c33 -16 35 -18 14 -21 -14 -2 -29 4 -38 15 -11 15 -15 15 -23 4 -6
-9 -11 -10 -15 -2 -4 6 -1 17 6 25 7 8 14 10 16 5 2 -5 20 -17 40 -26z m32 27
c0 -5 -2 -10 -4 -10 -3 0 -8 5 -11 10 -3 6 -1 10 4 10 6 0 11 -4 11 -10z m-63
-66 c-3 -3 -12 -4 -19 -1 -8 3 -5 6 6 6 11 1 17 -2 13 -5z m473 -18 c0 -3 -4
-8 -10 -11 -5 -3 -10 -1 -10 4 0 6 5 11 10 11 6 0 10 -2 10 -4z m-220 -106 c0
-22 -4 -40 -10 -40 -12 0 -24 45 -16 65 11 29 26 15 26 -25z m-113 -32 c-3 -8
-6 -5 -6 6 -1 11 2 17 5 13 3 -3 4 -12 1 -19z m63 -38 c0 -5 -4 -10 -10 -10
-5 0 -10 5 -10 10 0 6 5 10 10 10 6 0 10 -4 10 -10z m-63 -122 c-3 -7 -5 -2
-5 12 0 14 2 19 5 13 2 -7 2 -19 0 -25z m23 -37 c0 -6 -4 -13 -10 -16 -5 -3
-10 1 -10 9 0 9 5 16 10 16 6 0 10 -4 10 -9z m-3 -108 c-2 -16 -4 -5 -4 22 0
28 2 40 4 28 2 -13 2 -35 0 -50z m-1607 47 c0 -5 -9 -10 -21 -10 -11 0 -17 5
-14 10 3 6 13 10 21 10 8 0 14 -4 14 -10z m68 -56 c-2 -2 -15 0 -29 4 -25 7
-36 49 -12 49 7 0 13 -7 14 -16 0 -10 5 -6 12 9 l11 25 4 -33 c2 -19 2 -36 0
-38z m1516 51 c-4 -8 -8 -15 -10 -15 -2 0 -4 7 -4 15 0 8 4 15 10 15 5 0 7 -7
4 -15z m873 -17 c-3 -7 -5 -2 -5 12 0 14 2 19 5 13 2 -7 2 -19 0 -25z m-880
-40 c-3 -8 -6 -5 -6 6 -1 11 2 17 5 13 3 -3 4 -12 1 -19z m-1467 -12 c0 -11
-19 -15 -25 -6 -3 5 1 10 9 10 9 0 16 -2 16 -4z m1467 -48 c-3 -7 -5 -2 -5 12
0 14 2 19 5 13 2 -7 2 -19 0 -25z m33 -12 c0 -23 -26 -43 -39 -30 -3 4 0 9 7
11 6 3 12 13 12 24 0 10 5 19 10 19 6 0 10 -11 10 -24z m-20 -86 c0 -5 -4 -10
-10 -10 -5 0 -10 5 -10 10 0 6 5 10 10 10 6 0 10 -4 10 -10z m-1010 -20 c0 -5
-4 -10 -10 -10 -5 0 -10 5 -10 10 0 6 5 10 10 10 6 0 10 -4 10 -10z m-14 -162
c-3 -17 -3 -29 0 -25 4 3 20 -1 35 -9 24 -12 29 -21 27 -44 -1 -17 -7 -28 -13
-25 -5 3 -17 8 -27 11 -9 3 -18 14 -21 25 -3 11 -14 19 -26 19 -12 0 -21 3
-21 8 0 13 17 34 26 32 5 -1 10 4 13 11 2 7 -1 9 -8 5 -7 -5 -9 -1 -5 8 11 29
27 17 20 -16z m164 -4 c0 -20 -29 -49 -38 -39 -4 4 -1 10 6 12 6 3 12 13 12
24 0 10 5 19 10 19 6 0 10 -7 10 -16z m-20 -134 c0 -5 -5 -10 -11 -10 -5 0 -7
5 -4 10 3 6 8 10 11 10 2 0 4 -4 4 -10z m64 -1 c8 12 26 15 26 3 0 -11 -40
-33 -50 -27 -5 3 -6 13 -3 21 4 11 8 12 13 4 5 -9 9 -9 14 -1z m116 5 c0 -9
-31 -37 -36 -32 -9 9 8 38 22 38 8 0 14 -3 14 -6z m-60 -67 c0 -25 -57 -57
-61 -33 -1 4 4 17 12 27 15 21 49 26 49 6z m385 -177 c3 -5 2 -10 -4 -10 -5 0
-13 5 -16 10 -3 6 -2 10 4 10 5 0 13 -4 16 -10z m-190 -20 c3 -5 2 -10 -4 -10
-5 0 -13 5 -16 10 -3 6 -2 10 4 10 5 0 13 -4 16 -10z m-1322 -262 c-8 -47 -15
-50 -43 -21 l-25 26 28 -7 c29 -7 35 2 15 22 -9 9 -7 12 10 12 19 0 21 -4 15
-32z m47 -48 c0 -11 -7 -20 -15 -20 -18 0 -19 12 -3 28 16 16 18 15 18 -8z
m-327 -7 c-7 -2 -19 -2 -25 0 -7 3 -2 5 12 5 14 0 19 -2 13 -5z m59 -45 c-9
-9 -15 -9 -24 0 -9 9 -7 12 12 12 19 0 21 -3 12 -12z m-192 -19 c0 -5 -4 -9
-10 -9 -5 0 -10 7 -10 16 0 8 5 12 10 9 6 -3 10 -10 10 -16z m490 1 c0 -5 -2
-10 -4 -10 -3 0 -8 5 -11 10 -3 6 -1 10 4 10 6 0 11 -4 11 -10z m-510 -36 c0
-8 -6 -14 -14 -14 -18 0 -29 27 -13 33 16 6 27 -1 27 -19z m400 -24 c0 -5 -4
-10 -10 -10 -5 0 -10 5 -10 10 0 6 5 10 10 10 6 0 10 -4 10 -10z m311 -89
c-15 -10 -41 -4 -41 9 0 12 33 18 45 8 6 -6 5 -12 -4 -17z m89 -11 c0 -5 -9
-10 -21 -10 -11 0 -17 5 -14 10 3 6 13 10 21 10 8 0 14 -4 14 -10z m7 -54 c-8
-20 -61 -14 -65 7 -2 11 6 17 25 19 33 4 48 -5 40 -26z m-197 -36 c0 -11 -6
-20 -13 -20 -8 0 -22 -9 -32 -20 -10 -11 -31 -20 -47 -20 -30 0 -38 17 -13 26
8 4 15 13 15 21 0 10 7 14 20 10 11 -3 20 0 20 6 0 7 4 6 10 -3 8 -12 10 -12
16 3 9 23 24 22 24 -3z m90 -10 c0 -5 -16 -10 -36 -10 -21 0 -33 4 -29 10 3 6
19 10 36 10 16 0 29 -4 29 -10z m-222 -57 c2 -8 -5 -13 -17 -13 -12 0 -21 6
-21 16 0 18 31 15 38 -3z m399 -9 c-3 -3 -12 -4 -19 -1 -8 3 -5 6 6 6 11 1 17
-2 13 -5z m-560 -51 c-11 -10 -26 8 -20 23 5 15 7 14 15 -1 6 -9 7 -19 5 -22z
m698 -1 c-3 -3 -11 0 -18 7 -9 10 -8 11 6 5 10 -3 15 -9 12 -12z m-727 -50 c3
-16 -2 -22 -16 -22 -28 0 -52 -10 -52 -22 0 -5 9 -6 20 -3 11 4 20 2 20 -4 0
-6 -7 -11 -15 -11 -8 0 -15 -9 -15 -20 0 -18 -3 -19 -20 -10 -11 6 -20 7 -21
3 0 -4 -4 2 -9 15 -11 26 -3 52 15 52 7 0 15 9 18 21 3 12 10 18 16 15 5 -4
13 -2 16 4 11 18 40 6 43 -18z m119 -4 c-3 -8 -6 -5 -6 6 -1 11 2 17 5 13 3
-3 4 -12 1 -19z m-74 -28 c5 -18 -9 -40 -25 -40 -4 0 -8 16 -8 35 0 25 4 33
14 29 8 -3 16 -14 19 -24z m-176 -50 c-4 -15 0 -20 14 -20 10 0 23 -9 29 -20
9 -17 8 -20 -14 -20 -13 0 -27 6 -29 13 -4 7 -6 6 -6 -5 -1 -9 3 -18 9 -20 5
-1 6 -9 1 -16 -9 -15 -41 -5 -41 13 0 7 -6 15 -12 18 -7 2 -10 8 -5 12 4 5 14
0 23 -11 15 -18 15 -18 10 8 -4 15 -1 37 6 48 16 25 22 26 15 0z m1346 -27
c-7 -2 -19 -2 -25 0 -7 3 -2 5 12 5 14 0 19 -2 13 -5z m-1435 -80 c-11 -3 -18
-14 -18 -29 0 -25 -15 -33 -24 -11 -3 9 -9 7 -19 -5 -17 -22 -27 -23 -27 -3 0
8 6 15 13 15 7 0 18 9 25 20 8 13 22 20 40 19 17 -1 20 -3 10 -6z m-148 -133
c-6 -11 -15 -20 -21 -20 -6 0 -6 7 1 20 6 11 15 20 21 20 6 0 6 -7 -1 -20z
m-40 -50 c0 -5 -4 -10 -10 -10 -5 0 -10 5 -10 10 0 6 5 10 10 10 6 0 10 -4 10
-10z m-40 -19 c0 -6 -4 -13 -10 -16 -5 -3 -10 1 -10 9 0 9 5 16 10 16 6 0 10
-4 10 -9z m-160 -166 c-7 -9 -15 -13 -19 -10 -3 3 1 10 9 15 21 14 24 12 10
-5z m-165 -115 c3 -5 1 -10 -4 -10 -6 0 -11 5 -11 10 0 6 2 10 4 10 3 0 8 -4
11 -10z m40 -20 c3 -5 1 -10 -4 -10 -6 0 -11 5 -11 10 0 6 2 10 4 10 3 0 8 -4
11 -10z m-37 -42 c-2 -20 -8 -32 -15 -30 -7 1 -13 -2 -13 -8 0 -9 -65 -8 -74
1 -3 2 0 11 5 19 8 11 12 12 16 3 8 -21 23 -15 23 8 0 17 3 19 14 10 11 -10
16 -8 21 8 10 33 27 24 23 -11z m22 -97 c0 -6 -4 -13 -10 -16 -5 -3 -10 1 -10
9 0 9 5 16 10 16 6 0 10 -4 10 -9z m-150 -21 c0 -5 -5 -10 -11 -10 -5 0 -7 5
-4 10 3 6 8 10 11 10 2 0 4 -4 4 -10z m44 -16 c23 -22 20 -34 -9 -34 -18 0
-25 -5 -25 -20 0 -13 -7 -20 -20 -20 -11 0 -20 5 -20 11 0 6 7 8 16 5 9 -3 12
-2 9 5 -4 5 3 19 15 29 12 10 19 24 15 29 -9 16 1 13 19 -5z m-537 0 c-3 -3
-12 -4 -19 -1 -8 3 -5 6 6 6 11 1 17 -2 13 -5z m163 -43 c-8 -3 -16 -12 -17
-18 -2 -9 12 -13 47 -13 28 0 50 -3 50 -6 0 -16 -33 -34 -64 -34 -29 0 -36 -4
-36 -20 0 -11 -6 -20 -13 -20 -9 0 -12 10 -9 30 4 28 2 30 -27 30 -18 0 -31 5
-32 13 0 10 -2 10 -6 0 -2 -7 -12 -13 -20 -13 -9 0 -29 -14 -45 -32 -15 -17
-28 -26 -28 -20 0 8 -21 12 -60 12 -53 0 -60 2 -60 20 0 25 43 54 72 47 13 -2
34 -1 48 3 25 8 25 8 2 9 -13 1 -21 5 -17 11 3 5 56 9 118 8 62 0 105 -4 97
-7z m-340 -89 c0 -9 -15 -41 -32 -69 -35 -55 -65 -68 -94 -39 -19 19 -18 46 2
46 18 0 46 25 37 34 -4 3 5 6 18 6 31 0 53 15 45 29 -4 6 0 11 8 11 9 0 16 -8
16 -18z m-145 -172 c3 -5 1 -10 -4 -10 -6 0 -11 5 -11 10 0 6 2 10 4 10 3 0 8
-4 11 -10z m-30 -81 c18 -1 18 -2 2 -6 -14 -4 -18 -12 -14 -29 3 -16 0 -24 -9
-24 -14 0 -18 12 -15 38 1 6 -3 12 -8 12 -6 0 -8 7 -4 16 4 11 9 12 16 5 6 -6
20 -12 32 -12z m35 -49 c0 -5 -4 -10 -10 -10 -5 0 -10 5 -10 10 0 6 5 10 10
10 6 0 10 -4 10 -10z m-50 -30 c0 -5 -2 -10 -4 -10 -3 0 -8 5 -11 10 -3 6 -1
10 4 10 6 0 11 -4 11 -10z m907 -132 c-3 -8 -6 -5 -6 6 -1 11 2 17 5 13 3 -3
4 -12 1 -19z m-877 -42 c0 -3 -4 -8 -10 -11 -5 -3 -10 -1 -10 4 0 6 5 11 10
11 6 0 10 -2 10 -4z"/>
<path d="M3290 3540 c0 -6 7 -10 15 -10 8 0 15 2 15 4 0 2 -7 6 -15 10 -8 3
-15 1 -15 -4z"/>
<path d="M9318 8833 c7 -3 16 -2 19 1 4 3 -2 6 -13 5 -11 0 -14 -3 -6 -6z"/>
<path d="M9416 8786 c7 -18 30 -29 68 -32 19 -1 24 1 15 7 -8 5 -22 9 -32 9
-10 0 -20 7 -23 15 -4 8 -12 15 -20 15 -7 0 -11 -6 -8 -14z"/>
<path d="M2934 8532 c-144 -50 -247 -194 -230 -320 13 -96 109 -222 195 -259
18 -8 64 -17 101 -20 58 -5 75 -2 123 20 72 33 140 96 172 160 20 42 25 65 25
129 0 94 -14 131 -70 192 -51 55 -92 81 -156 101 -63 19 -97 18 -160 -3z"/>
<path d="M8033 8373 c9 -2 23 -2 30 0 6 3 -1 5 -18 5 -16 0 -22 -2 -12 -5z"/>
<path d="M8439 8376 c-6 -6 -136 -27 -186 -30 -48 -2 -48 -11 -2 -25 33 -10
59 -10 124 0 61 9 91 9 114 1 18 -6 31 -7 31 -2 0 6 8 9 18 8 9 -1 36 0 60 0
35 2 42 5 42 22 0 18 -7 20 -69 20 -38 0 -81 3 -97 6 -16 3 -32 3 -35 0z"/>
<path d="M7683 8290 c0 -47 2 -66 4 -42 2 23 2 61 0 85 -2 23 -4 4 -4 -43z"/>
<path d="M8271 8291 c-11 -7 -11 -9 0 -14 8 -3 3 -6 -11 -6 -14 -1 -32 -6 -40
-12 -12 -8 -10 -9 10 -5 14 3 40 6 58 6 21 0 32 5 32 14 0 8 6 17 13 19 6 3
-1 6 -18 6 -16 0 -36 -3 -44 -8z"/>
<path d="M8065 8280 c3 -5 8 -10 11 -10 2 0 4 5 4 10 0 6 -5 10 -11 10 -5 0
-7 -4 -4 -10z"/>
<path d="M8115 8280 c3 -5 15 -10 26 -10 10 0 19 -4 19 -10 0 -5 7 -10 15 -10
12 0 11 4 -5 20 -20 20 -66 29 -55 10z"/>
<path d="M8500 8283 c0 -5 5 -15 10 -23 7 -11 10 -11 10 -2 0 9 5 10 19 2 11
-5 26 -10 33 -9 7 0 3 5 -9 11 -13 6 -23 15 -23 20 0 4 -9 8 -20 8 -11 0 -20
-3 -20 -7z"/>
<path d="M8560 8280 c0 -5 7 -10 15 -10 8 0 15 5 15 10 0 6 -7 10 -15 10 -8 0
-15 -4 -15 -10z"/>
<path d="M8160 8201 c0 -14 83 -21 195 -16 131 5 139 6 80 15 -71 11 -275 12
-275 1z"/>
<path d="M8520 8200 l-35 -7 38 -2 c20 0 37 4 37 9 0 6 -1 9 -2 9 -2 -1 -19
-5 -38 -9z"/>
<path d="M6580 7710 c0 -5 -16 -10 -35 -10 -19 0 -35 -4 -35 -10 0 -5 -6 -10
-13 -10 -7 0 -19 -9 -27 -20 -8 -11 -18 -20 -23 -20 -23 0 -97 -98 -119 -158
-21 -57 -21 -248 0 -261 7 -4 14 -17 17 -29 2 -12 8 -30 14 -39 9 -16 11 -14
21 13 8 24 16 31 30 27 12 -3 28 5 45 22 19 21 25 24 25 11 0 -9 5 -16 10 -16
6 0 10 5 10 10 0 6 8 10 19 10 11 0 22 10 26 23 l7 22 9 -25 c6 -18 8 -9 5 35
-2 33 -1 52 1 43 3 -10 11 -18 19 -18 18 0 20 -76 2 -83 -7 -3 -3 -6 10 -6 20
-1 22 4 22 44 0 25 5 45 10 45 6 0 10 6 10 14 0 8 5 16 10 18 6 2 12 17 13 33
2 28 0 30 -31 27 -31 -3 -32 -2 -26 22 5 20 2 26 -9 26 -9 0 -19 5 -22 10 -4
6 8 10 29 10 24 0 36 -5 39 -17 4 -15 5 -16 6 -2 1 11 14 19 36 23 19 4 35 11
35 15 0 13 53 20 72 10 11 -6 19 -5 23 2 5 7 14 4 26 -7 13 -12 16 -20 8 -25
-6 -4 -8 -16 -4 -28 5 -18 9 -20 21 -10 8 6 14 17 14 24 0 8 6 16 13 18 9 4 9
8 -1 15 -8 5 -13 12 -12 16 5 18 -24 67 -36 62 -8 -3 -21 -3 -29 1 -14 5 -14
7 0 23 15 17 15 19 -2 30 -13 8 -15 13 -5 17 10 4 10 8 1 19 -9 12 -6 14 22
14 33 0 33 0 12 15 -12 8 -40 16 -61 18 -22 1 -38 5 -35 10 2 4 -34 7 -81 7
-51 0 -86 -4 -86 -10z m167 -55 c0 -8 -6 -15 -14 -15 -7 0 -13 7 -13 15 0 8 6
15 13 15 8 0 14 -7 14 -15z m-267 -90 c0 -8 -4 -15 -10 -15 -5 0 -7 7 -4 15 4
8 8 15 10 15 2 0 4 -7 4 -15z m148 -236 c-2 -6 -8 -10 -13 -10 -5 0 -11 4 -13
10 -2 6 4 11 13 11 9 0 15 -5 13 -11z m-85 -33 c4 -10 1 -13 -9 -9 -15 6 -19
23 -5 23 5 0 11 -7 14 -14z"/>
<path d="M6870 7655 c0 -9 12 -20 26 -25 38 -15 40 -12 10 15 -31 29 -36 30
-36 10z"/>
<path d="M6700 7340 c-17 -11 10 -19 34 -10 19 6 19 7 -1 12 -11 3 -26 2 -33
-2z"/>
<path d="M6953 7235 c-17 -18 -16 -23 2 -41 13 -14 15 -13 15 5 0 12 6 21 16
21 14 0 14 2 0 15 -18 18 -18 18 -33 0z"/>
<path d="M6535 7128 c-4 -13 -17 -31 -29 -40 l-21 -18 22 0 c13 0 24 8 28 20
3 11 11 20 16 20 5 0 9 9 9 20 0 27 -17 25 -25 -2z"/>
<path d="M7030 7085 c-11 -13 -8 -15 15 -15 23 0 26 2 15 15 -7 8 -14 15 -15
15 -1 0 -8 -7 -15 -15z"/>
<path d="M6712 7030 c0 -19 2 -27 5 -17 2 9 2 25 0 35 -3 9 -5 1 -5 -18z"/>
<path d="M6540 7039 c0 -5 -4 -8 -9 -4 -5 3 -12 1 -15 -4 -3 -5 1 -11 9 -15 9
-3 19 3 25 14 7 14 7 20 0 20 -5 0 -10 -5 -10 -11z"/>
<path d="M7870 6995 c0 -9 5 -15 11 -13 6 2 11 8 11 13 0 5 -5 11 -11 13 -6 2
-11 -4 -11 -13z"/>
<path d="M6497 6671 c25 -5 30 -9 23 -20 -7 -13 -11 -13 -25 -1 -14 12 -18 12
-26 -1 -6 -10 -9 -10 -9 -1 0 6 -7 12 -15 12 -8 0 -15 -4 -15 -10 0 -5 -6 -10
-14 -10 -8 0 -18 -9 -21 -20 -4 -11 -15 -20 -26 -20 -17 0 -18 -3 -9 -20 6
-11 7 -20 2 -20 -6 0 -12 -9 -15 -21 -3 -12 -10 -18 -17 -14 -6 4 -3 -10 6
-32 9 -21 16 -45 16 -54 0 -12 5 -15 21 -11 12 3 25 10 29 16 6 8 8 8 8 0 0
-7 9 -14 21 -17 11 -3 23 -15 26 -26 5 -21 23 -29 23 -11 0 5 10 9 23 7 16 -1
22 3 22 18 1 36 44 11 45 -25 0 -22 -38 -44 -54 -31 -11 9 -69 6 -106 -6 -28
-9 89 -54 129 -50 76 9 106 34 106 91 0 34 4 43 28 54 24 12 26 16 15 29 -12
15 -13 15 -16 -1 -2 -9 -8 -14 -13 -11 -16 10 -10 36 14 55 l22 19 -37 -6
c-25 -4 -38 -2 -38 6 0 6 5 11 11 11 5 0 7 5 4 10 -3 6 1 10 9 10 9 0 16 5 16
10 0 6 -13 10 -30 10 -16 0 -30 -4 -30 -10 0 -5 -9 -10 -20 -10 -11 0 -20 6
-20 14 0 8 -3 21 -6 30 -5 13 1 16 26 16 18 0 29 4 25 10 -3 6 -17 10 -30 10
-12 0 -25 7 -29 15 -3 10 -18 15 -43 14 l-38 -2 32 -6z m-7 -66 c0 -18 -7 -26
-25 -31 -19 -5 -25 -13 -25 -35 0 -22 -5 -29 -19 -29 -11 0 -23 -9 -26 -20 -5
-16 -9 -18 -18 -8 -15 16 -20 68 -7 68 6 0 10 10 11 23 0 20 1 21 8 2 7 -17 9
-16 16 10 5 17 8 33 7 38 -1 4 16 7 38 7 36 0 40 -3 40 -25z m70 -265 c0 -5
-4 -10 -10 -10 -5 0 -10 5 -10 10 0 6 5 10 10 10 6 0 10 -4 10 -10z"/>
<path d="M5597 6447 c-3 -8 3 -14 16 -15 12 0 17 2 12 6 -6 4 -13 11 -16 15
-4 4 -9 2 -12 -6z"/>
<path d="M6373 6413 c-7 -3 -13 -12 -13 -21 0 -15 2 -15 17 1 18 18 16 27 -4
20z"/>
<path d="M5645 6400 c-3 -5 1 -10 9 -10 9 0 16 5 16 10 0 6 -4 10 -9 10 -6 0
-13 -4 -16 -10z"/>
<path d="M5600 6360 c0 -5 4 -10 9 -10 6 0 13 5 16 10 3 6 -1 10 -9 10 -9 0
-16 -4 -16 -10z"/>
<path d="M5622 6338 c7 -19 35 -21 41 -3 5 11 0 15 -19 15 -16 0 -24 -5 -22
-12z"/>
<path d="M5804 6287 c4 -19 3 -37 -2 -39 -12 -4 -25 -58 -14 -58 5 0 17 9 27
20 10 11 26 20 37 20 10 0 18 3 18 8 -1 13 -25 38 -43 45 -10 4 -16 11 -12 16
3 5 0 13 -6 17 -9 5 -10 -3 -5 -29z m36 -21 c0 -3 -4 -8 -10 -11 -5 -3 -10 -1
-10 4 0 6 5 11 10 11 6 0 10 -2 10 -4z"/>
<path d="M5884 6208 c3 -9 2 -19 -2 -23 -9 -9 -9 -75 1 -75 4 0 7 9 7 19 0 11
6 21 13 24 9 3 8 12 -6 38 -10 19 -16 27 -13 17z"/>
<path d="M5487 6074 c-9 -10 2 -24 19 -24 8 0 14 7 14 15 0 15 -21 21 -33 9z"/>
<path d="M5260 6060 c0 -5 5 -10 10 -10 6 0 10 5 10 10 0 6 -4 10 -10 10 -5 0
-10 -4 -10 -10z"/>
<path d="M5425 6060 c3 -5 8 -10 11 -10 2 0 4 5 4 10 0 6 -5 10 -11 10 -5 0
-7 -4 -4 -10z"/>
<path d="M4065 6046 c-37 -17 -91 -70 -112 -110 -25 -49 -18 -124 16 -171 37
-51 134 -107 177 -101 38 4 46 9 102 53 53 43 72 79 73 141 3 135 -140 240
-256 188z"/>
<path d="M5528 6023 c6 -2 18 -2 25 0 6 3 1 5 -13 5 -14 0 -19 -2 -12 -5z"/>
<path d="M5932 6000 c0 -19 2 -27 5 -17 2 9 2 25 0 35 -3 9 -5 1 -5 -18z"/>
<path d="M4962 5910 c0 -14 2 -19 5 -12 2 6 2 18 0 25 -3 6 -5 1 -5 -13z"/>
<path d="M5200 5779 c0 -5 5 -7 10 -4 6 3 10 8 10 11 0 2 -4 4 -10 4 -5 0 -10
-5 -10 -11z"/>
<path d="M4947 5735 c17 -36 33 -46 33 -22 0 14 -33 57 -44 57 -3 0 2 -16 11
-35z"/>
<path d="M5224 5759 c-10 -17 13 -36 27 -22 12 12 4 33 -11 33 -5 0 -12 -5
-16 -11z"/>
<path d="M4995 5661 c8 -17 20 -31 26 -31 8 0 8 4 0 14 -6 8 -10 20 -9 27 2 7
-5 15 -15 17 -17 4 -18 2 -2 -27z"/>
<path d="M1312 5635 c-83 -42 -157 -111 -189 -176 -32 -65 -40 -173 -18 -240
40 -121 121 -209 236 -255 66 -27 87 -28 221 -8 53 7 67 0 173 -91 106 -91
309 -259 365 -302 30 -23 64 -50 75 -60 11 -10 45 -38 75 -63 30 -25 57 -48
58 -52 2 -5 10 -8 17 -8 8 0 20 -8 27 -18 18 -25 104 -83 112 -75 3 4 6 1 6
-5 0 -7 -7 -12 -15 -12 -8 0 -15 -6 -15 -14 0 -34 -28 -39 -218 -41 -103 -1
-347 -7 -542 -14 -510 -16 -532 -16 -556 -3 -12 6 -40 45 -62 85 -47 86 -97
134 -184 178 -150 76 -294 79 -441 9 -82 -39 -149 -109 -204 -213 l-48 -92 0
-125 c0 -115 2 -130 27 -183 61 -131 189 -246 308 -278 83 -22 210 -23 273 -1
121 43 222 131 290 252 29 51 52 79 72 89 23 11 102 16 340 22 171 4 317 9
325 13 15 5 66 9 280 21 58 3 135 10 173 16 37 5 79 6 92 3 15 -4 32 -1 40 6
10 9 15 9 15 1 0 -6 4 -11 10 -11 16 0 -1 30 -19 31 -9 0 4 7 29 14 25 7 60
19 79 27 27 10 35 10 38 1 3 -7 13 -13 24 -13 29 0 26 -40 -3 -41 -22 -1 -22
-1 2 -8 14 -4 52 -5 84 -2 58 6 59 6 33 20 -28 15 -44 44 -28 49 26 9 8 22
-29 22 -22 0 -40 5 -40 10 0 6 18 10 40 10 33 0 40 3 40 20 0 21 15 27 25 9 4
-6 19 3 38 22 l30 32 -22 19 -23 18 23 20 c13 10 30 19 38 20 22 0 60 48 66
81 3 17 11 37 18 45 25 28 33 40 40 58 5 12 14 17 27 13 20 -5 45 15 33 26 -3
4 2 10 12 13 10 4 21 1 26 -7 6 -10 8 -6 5 11 -3 14 -5 27 -5 30 -1 2 -6 -1
-13 -8 -7 -7 -19 -12 -28 -12 -9 0 -31 -13 -50 -30 -19 -16 -41 -29 -48 -30
-7 0 -10 -4 -7 -10 3 -5 1 -10 -5 -10 -7 0 -21 -11 -32 -25 -56 -72 -116 -66
-208 21 -66 63 -112 104 -114 104 -4 0 -96 82 -135 121 -31 30 -64 59 -164
139 -11 8 -40 34 -65 57 -26 24 -50 43 -54 43 -4 0 -17 10 -30 23 -13 12 -43
38 -67 57 -66 52 -164 141 -180 164 -12 16 -12 29 -3 76 29 137 2 222 -101
324 -83 82 -160 120 -252 124 -64 3 -76 1 -143 -33z m1365 -1301 c-3 -3 -12
-4 -19 -1 -8 3 -5 6 6 6 11 1 17 -2 13 -5z m-40 -46 c-3 -7 -5 -2 -5 12 0 14
2 19 5 13 2 -7 2 -19 0 -25z m93 12 c10 -6 11 -10 3 -10 -7 0 -13 -7 -13 -15
0 -8 -2 -15 -4 -15 -2 0 -11 -3 -20 -6 -12 -5 -16 0 -16 19 0 14 -6 28 -12 30
-7 3 1 6 17 6 17 0 37 -4 45 -9z m-10 -100 c0 -5 -5 -10 -11 -10 -5 0 -7 5 -4
10 3 6 8 10 11 10 2 0 4 -4 4 -10z m-200 -20 c0 -5 11 -10 25 -10 14 0 25 -4
25 -9 0 -4 17 -8 38 -7 27 1 37 -3 37 -14 0 -23 -75 -27 -92 -4 -7 10 -20 15
-33 11 -16 -4 -20 0 -20 19 0 13 5 24 10 24 6 0 10 -4 10 -10z m-43 -6 c-3 -3
-12 -4 -19 -1 -8 3 -5 6 6 6 11 1 17 -2 13 -5z m-38 -33 c11 -7 10 -11 -7 -20
-28 -15 -32 -14 -32 9 0 21 16 26 39 11z m231 -127 c0 -2 -9 -4 -20 -4 -11 0
-20 4 -20 9 0 5 9 7 20 4 11 -3 20 -7 20 -9z"/>
<path d="M5070 5585 c0 -2 10 -13 22 -25 23 -21 58 -27 58 -10 0 13 -32 28
-47 23 -7 -3 -13 0 -13 6 0 6 -4 11 -10 11 -5 0 -10 -2 -10 -5z"/>
<path d="M5600 5540 c0 -5 9 -10 20 -10 11 0 20 5 20 10 0 6 -9 10 -20 10 -11
0 -20 -4 -20 -10z"/>
<path d="M5145 5530 c-19 -7 -19 -7 3 -14 26 -9 41 -1 26 13 -5 5 -18 5 -29 1z"/>
<path d="M5566 5475 c-3 -9 0 -15 9 -15 8 0 15 7 15 15 0 8 -4 15 -9 15 -5 0
-11 -7 -15 -15z"/>
<path d="M3980 5054 c0 -20 29 -49 38 -39 4 4 1 10 -5 12 -7 3 -13 13 -13 24
0 10 -4 19 -10 19 -5 0 -10 -7 -10 -16z"/>
<path d="M3857 4977 c-21 -38 -92 -117 -106 -117 -5 0 -13 -9 -16 -20 -3 -11
-11 -20 -16 -20 -15 0 -39 -26 -32 -34 4 -3 1 -6 -6 -6 -16 0 -102 -86 -94
-94 3 -3 1 -6 -6 -6 -16 0 -42 -26 -34 -34 4 -3 -4 -6 -16 -6 -12 0 -20 -4
-17 -9 4 -5 2 -11 -4 -13 -6 -2 -6 -9 0 -18 8 -12 11 -12 28 3 10 9 24 17 30
17 7 0 12 12 12 26 0 19 4 25 15 20 8 -3 15 -1 15 5 0 6 10 8 23 5 12 -3 16
-3 10 0 -18 8 -16 24 2 24 8 0 15 8 15 18 0 12 3 13 8 4 6 -9 14 -6 31 12 17
18 19 25 9 29 -8 4 -7 6 5 6 10 1 27 10 39 21 12 11 27 20 34 20 7 0 15 8 18
18 4 11 18 25 31 32 16 8 25 22 25 37 0 14 6 23 15 23 22 0 35 40 22 68 -14
29 -19 28 -40 -11z"/>
<path d="M3925 4950 c-3 -11 -11 -20 -16 -20 -5 0 -9 -7 -9 -16 0 -10 7 -14
23 -12 16 2 21 9 20 26 -2 12 2 22 8 22 5 0 7 5 4 10 -10 16 -23 12 -30 -10z"/>
<path d="M3980 4960 c0 -5 5 -10 10 -10 6 0 10 5 10 10 0 6 -4 10 -10 10 -5 0
-10 -4 -10 -10z"/>
<path d="M3980 4925 c0 -8 -4 -15 -10 -15 -5 0 -10 -4 -10 -9 0 -5 14 -9 30
-9 17 1 30 5 30 10 0 4 -4 8 -10 8 -5 0 -10 7 -10 15 0 8 -4 15 -10 15 -5 0
-10 -7 -10 -15z"/>
<path d="M3880 4866 c0 -9 7 -16 16 -16 9 0 14 5 12 12 -6 18 -28 21 -28 4z"/>
<path d="M3942 4869 c2 -6 8 -10 13 -10 5 0 11 4 13 10 2 6 -4 11 -13 11 -9 0
-15 -5 -13 -11z"/>
<path d="M4000 4810 c0 -24 15 -26 24 -4 3 9 13 14 21 10 8 -3 17 -1 20 4 4 6
-9 10 -29 10 -29 0 -36 -4 -36 -20z"/>
<path d="M3722 4707 c-6 -7 -8 -24 -5 -37 5 -20 3 -22 -15 -18 -17 5 -22 2
-22 -12 0 -13 5 -17 20 -13 11 3 20 0 20 -6 0 -6 9 -11 20 -11 21 0 27 15 10
25 -10 6 -8 40 3 51 12 12 8 34 -7 34 -7 0 -18 -6 -24 -13z"/>
<path d="M3810 4700 c0 -5 7 -10 15 -10 8 0 15 5 15 10 0 6 -7 10 -15 10 -8 0
-15 -4 -15 -10z"/>
<path d="M3770 4660 c0 -5 5 -10 10 -10 6 0 10 5 10 10 0 6 -4 10 -10 10 -5 0
-10 -4 -10 -10z"/>
<path d="M3650 4582 c0 -7 -8 -12 -17 -10 -12 2 -19 -5 -21 -20 -3 -21 -1 -23
20 -17 13 4 23 8 24 9 0 0 7 12 16 26 15 24 14 26 -3 26 -11 0 -19 -6 -19 -14z"/>
<path d="M3131 4573 c-1 -8 -17 -13 -44 -13 -40 0 -43 -2 -44 -27 -1 -16 0
-23 3 -18 2 6 23 9 45 7 28 -3 39 -1 35 6 -4 7 8 14 31 18 25 5 38 3 41 -5 2
-6 14 -11 26 -11 12 0 31 -7 43 -15 17 -12 37 -14 85 -10 78 8 88 11 87 27 0
10 -2 10 -6 1 -3 -8 -25 -13 -58 -13 -76 0 -117 10 -111 26 5 13 -18 19 -64
16 -8 0 -18 5 -22 11 -6 9 -8 9 -8 0 0 -7 -6 -13 -14 -13 -8 0 -17 6 -19 13
-4 10 -6 10 -6 0z"/>
<path d="M3464 4565 c8 -8 25 -15 38 -15 22 1 22 1 4 15 -11 8 -28 15 -39 15
-16 0 -17 -2 -3 -15z"/>
<path d="M3582 4535 c0 -16 2 -22 5 -12 2 9 2 23 0 30 -3 6 -5 -1 -5 -18z"/>
<path d="M3622 4490 c0 -14 2 -19 5 -12 2 6 2 18 0 25 -3 6 -5 1 -5 -13z"/>
<path d="M3028 4428 c-22 -27 -23 -38 -4 -38 8 0 16 -5 18 -10 2 -7 32 -10 78
-8 72 3 74 4 45 17 l-30 13 33 16 c17 9 32 19 32 24 0 4 -35 8 -77 8 -68 0
-80 -3 -95 -22z"/>
<path d="M3240 4440 c0 -5 16 -10 36 -10 21 0 33 4 29 10 -3 6 -19 10 -36 10
-16 0 -29 -4 -29 -10z"/>
<path d="M3578 4436 c-17 -6 -28 -17 -28 -28 0 -20 -16 -24 -23 -5 -8 22 -20
-1 -13 -26 8 -35 44 -42 52 -11 3 13 9 22 14 19 4 -2 16 2 26 10 13 10 15 14
5 15 -10 0 -11 3 -2 14 16 19 2 25 -31 12z"/>
<path d="M3630 4434 c0 -14 3 -14 15 -4 8 7 15 14 15 16 0 2 -7 4 -15 4 -8 0
-15 -7 -15 -16z"/>
<path d="M3455 4400 c-4 -6 -3 -16 3 -22 6 -6 12 -6 17 2 4 6 3 16 -3 22 -6 6
-12 6 -17 -2z"/>
<path d="M3220 4366 c0 -9 5 -16 10 -16 6 0 10 4 10 9 0 6 -4 13 -10 16 -5 3
-10 -1 -10 -9z"/>
<path d="M3270 4360 c-7 -14 -7 -20 0 -20 5 0 10 5 10 10 0 6 6 10 14 10 8 0
18 5 21 10 3 6 -3 10 -14 10 -11 0 -25 -9 -31 -20z"/>
<path d="M3008 4353 c6 -2 18 -2 25 0 6 3 1 5 -13 5 -14 0 -19 -2 -12 -5z"/>
<path d="M2953 4329 c-7 -7 -13 -23 -13 -36 0 -17 6 -23 23 -23 22 1 86 45 77
54 -13 13 -76 16 -87 5z"/>
<path d="M3378 4316 c-11 -8 -18 -26 -18 -44 0 -25 3 -30 18 -26 38 13 62 28
62 41 0 7 5 13 11 13 5 0 8 4 4 10 -3 5 -12 7 -19 4 -8 -3 -17 -1 -21 5 -8 14
-16 13 -37 -3z"/>
<path d="M3260 4300 c0 -5 5 -10 10 -10 6 0 10 5 10 10 0 6 -4 10 -10 10 -5 0
-10 -4 -10 -10z"/>
<path d="M3310 4259 c0 -5 5 -7 10 -4 6 3 10 8 10 11 0 2 -4 4 -10 4 -5 0 -10
-5 -10 -11z"/>
<path d="M2827 4124 c-11 -12 36 -94 55 -94 14 0 18 8 18 40 0 22 -4 40 -10
40 -5 0 -10 -4 -10 -10 0 -5 -9 -10 -20 -10 -11 0 -20 5 -20 10 0 6 5 10 11
10 5 0 7 5 4 10 -7 11 -19 13 -28 4z"/>
<path d="M3010 4102 c0 -5 7 -17 15 -28 14 -18 14 -18 15 9 0 17 -5 27 -15 27
-8 0 -15 -4 -15 -8z"/>
<path d="M2961 4048 c-1 -10 -6 -18 -12 -18 -5 0 -7 -5 -3 -11 9 -15 28 16 20
34 -2 7 -5 4 -5 -5z"/>
<path d="M2720 4040 c0 -5 14 -10 30 -10 17 0 30 5 30 10 0 6 -13 10 -30 10
-16 0 -30 -4 -30 -10z"/>
<path d="M2790 4000 c0 -15 59 -74 66 -67 4 3 3 22 0 42 -6 29 -10 34 -21 25
-9 -7 -15 -8 -20 0 -8 13 -25 13 -25 0z"/>
<path d="M2874 3943 c-13 -22 -7 -43 12 -43 9 0 14 11 14 30 0 34 -10 39 -26
13z"/>
<path d="M2915 3880 c3 -5 10 -10 16 -10 5 0 9 5 9 10 0 6 -7 10 -16 10 -8 0
-12 -4 -9 -10z"/>
<path d="M1978 3683 c-16 -2 -28 -9 -28 -14 0 -5 -7 -9 -15 -9 -35 0 -92 -49
-121 -102 -20 -38 -29 -112 -16 -134 9 -16 12 -10 18 36 4 30 9 49 11 43 9
-25 28 -13 46 27 15 35 21 40 49 40 23 0 29 3 21 11 -17 17 -4 47 23 52 13 2
58 4 99 3 41 0 75 2 75 7 0 4 8 7 17 7 14 0 14 3 -4 15 -23 16 -127 27 -175
18z"/>
<path d="M7715 3648 c-44 -16 -109 -63 -140 -100 -101 -119 -90 -291 25 -406
126 -125 303 -126 427 -3 65 65 88 121 87 211 0 125 -59 221 -169 278 -57 29
-178 40 -230 20z"/>
<path d="M2198 3633 c7 -3 16 -2 19 1 4 3 -2 6 -13 5 -11 0 -14 -3 -6 -6z"/>
<path d="M2226 3585 c9 -14 21 -25 28 -25 7 0 7 -3 1 -8 -17 -12 -17 -42 -1
-42 8 0 21 -9 29 -20 14 -20 14 -19 26 6 9 21 9 30 -1 43 -24 30 -37 41 -48
41 -6 0 -9 4 -6 9 3 5 -1 12 -10 15 -29 11 -34 6 -18 -19z"/>
<path d="M1966 3582 c-2 -4 0 -14 5 -22 8 -12 12 -12 16 -2 2 6 16 12 29 12
14 0 22 4 19 10 -7 12 -62 13 -69 2z"/>
<path d="M2023 3543 c9 -2 25 -2 35 0 9 3 1 5 -18 5 -19 0 -27 -2 -17 -5z"/>
<path d="M2080 3500 c0 -28 2 -30 40 -30 49 0 56 25 10 35 -16 4 -30 11 -30
16 0 5 -4 9 -10 9 -5 0 -10 -13 -10 -30z"/>
<path d="M2260 3441 c0 -6 5 -13 10 -16 6 -3 10 1 10 9 0 9 -4 16 -10 16 -5 0
-10 -4 -10 -9z"/>
<path d="M2140 3425 c0 -8 5 -15 10 -15 6 0 10 7 10 15 0 8 -4 15 -10 15 -5 0
-10 -7 -10 -15z"/>
<path d="M1923 3413 c-4 -9 -2 -18 4 -20 6 -2 9 -12 6 -22 -2 -9 2 -23 11 -30
22 -18 36 14 24 57 -9 34 -34 43 -45 15z"/>
<path d="M2262 3360 c-1 -27 3 -50 9 -50 5 0 9 9 9 20 0 11 5 20 10 20 6 0 10
5 10 11 0 5 -4 7 -10 4 -6 -4 -10 5 -10 19 0 14 -4 26 -9 26 -5 0 -9 -22 -9
-50z"/>
<path d="M1798 3329 c-6 -36 0 -69 12 -69 15 0 18 42 6 72 l-13 31 -5 -34z
m22 -29 c0 -5 -5 -10 -11 -10 -5 0 -7 5 -4 10 3 6 8 10 11 10 2 0 4 -4 4 -10z"/>
<path d="M2045 3288 c-20 -20 -20 -20 -1 -32 11 -6 27 -19 37 -28 11 -10 21
-13 24 -8 10 16 23 11 30 -10 4 -14 15 -20 34 -20 37 0 44 10 24 32 -13 15
-14 23 -5 44 15 31 16 55 2 34 -9 -13 -10 -13 -10 0 -1 11 -4 10 -17 -5 -12
-15 -14 -16 -10 -3 9 26 -81 23 -108 -4z"/>
<path d="M2273 3270 c1 -19 17 -27 30 -14 9 10 -4 34 -18 34 -8 0 -13 -9 -12
-20z"/>
<path d="M1980 3240 c0 -5 5 -10 10 -10 6 0 10 5 10 10 0 6 -4 10 -10 10 -5 0
-10 -4 -10 -10z"/>
<path d="M2235 3240 c-3 -5 3 -10 15 -10 12 0 18 5 15 10 -3 6 -10 10 -15 10
-5 0 -12 -4 -15 -10z"/>
<path d="M2225 3210 c-3 -5 3 -10 14 -10 12 0 21 5 21 10 0 6 -6 10 -14 10 -8
0 -18 -4 -21 -10z"/>
<path d="M1870 3201 c0 -6 5 -13 10 -16 6 -3 10 1 10 9 0 9 -4 16 -10 16 -5 0
-10 -4 -10 -9z"/>
<path d="M2126 3155 c-13 -20 -15 -30 -7 -38 19 -19 47 17 35 44 -10 22 -10
22 -28 -6z"/>
<path d="M1910 3160 c0 -5 12 -10 28 -10 21 0 24 2 12 10 -20 13 -40 13 -40 0z"/>
<path d="M1995 3160 c-3 -5 -1 -10 4 -10 6 0 11 5 11 10 0 6 -2 10 -4 10 -3 0
-8 -4 -11 -10z"/>
<path d="M2175 3160 c-3 -5 1 -10 9 -10 8 0 18 5 21 10 3 6 -1 10 -9 10 -8 0
-18 -4 -21 -10z"/>
<path d="M2050 3141 c0 -5 7 -11 15 -15 9 -3 15 0 15 9 0 8 -7 15 -15 15 -8 0
-15 -4 -15 -9z"/>
<path d="M1955 3130 c-7 -11 63 -18 78 -8 14 9 14 9 -36 12 -21 2 -40 0 -42
-4z"/>
<path d="M2961 3014 c0 -11 3 -14 6 -6 3 7 2 16 -1 19 -3 4 -6 -2 -5 -13z"/>
<path d="M3821 1178 c-41 -20 -101 -93 -101 -123 0 -6 11 -34 24 -61 29 -61
81 -109 135 -125 36 -11 44 -9 83 14 100 58 118 188 36 263 -32 29 -83 54
-110 54 -13 0 -43 -10 -67 -22z"/>
</g>
</svg>
